<?xml version="1.0" encoding="utf-8" standalone="no"?>
<!DOCTYPE svg PUBLIC "-//W3C//DTD SVG 1.1//EN"
  "http://www.w3.org/Graphics/SVG/1.1/DTD/svg11.dtd">
<svg xmlns:xlink="http://www.w3.org/1999/xlink" width="900pt" height="504pt" viewBox="0 0 900 504" xmlns="http://www.w3.org/2000/svg" version="1.1">
 <metadata>
  <rdf:RDF xmlns:dc="http://purl.org/dc/elements/1.1/" xmlns:cc="http://creativecommons.org/ns#" xmlns:rdf="http://www.w3.org/1999/02/22-rdf-syntax-ns#">
   <cc:Work>
    <dc:type rdf:resource="http://purl.org/dc/dcmitype/StillImage"/>
    <dc:date>2022-10-25T13:34:30.592899</dc:date>
    <dc:format>image/svg+xml</dc:format>
    <dc:creator>
     <cc:Agent>
      <dc:title>Matplotlib v3.6.1, https://matplotlib.org/</dc:title>
     </cc:Agent>
    </dc:creator>
   </cc:Work>
  </rdf:RDF>
 </metadata>
 <defs>
  <style type="text/css">*{stroke-linejoin: round; stroke-linecap: butt}</style>
 </defs>
 <g id="figure_1">
  <g id="patch_1">
   <path d="M 0 504 
L 900 504 
L 900 0 
L 0 0 
z
" style="fill: #ffffff"/>
  </g>
  <g id="axes_1">
   <g id="patch_2">
    <path d="M 45.725 462.84375 
L 841.55 462.84375 
L 841.55 10.8 
L 45.725 10.8 
z
" style="fill: #ffffff"/>
   </g>
   <g id="patch_3">
    <path d="M 49.177603 462.84375 
L 56.082809 462.84375 
L 56.082809 72.213982 
L 49.177603 72.213982 
z
" clip-path="url(#p7841dd0088)" style="fill: #1f77b4; opacity: 0.9"/>
   </g>
   <g id="patch_4">
    <path d="M 66.440618 462.84375 
L 73.345824 462.84375 
L 73.345824 130.438296 
L 66.440618 130.438296 
z
" clip-path="url(#p7841dd0088)" style="fill: #1f77b4; opacity: 0.9"/>
   </g>
   <g id="patch_5">
    <path d="M 83.703633 462.84375 
L 90.608839 462.84375 
L 90.608839 97.672698 
L 83.703633 97.672698 
z
" clip-path="url(#p7841dd0088)" style="fill: #1f77b4; opacity: 0.9"/>
   </g>
   <g id="patch_6">
    <path d="M 100.966649 462.84375 
L 107.871855 462.84375 
L 107.871855 32.397831 
L 100.966649 32.397831 
z
" clip-path="url(#p7841dd0088)" style="fill: #1f77b4; opacity: 0.9"/>
   </g>
   <g id="patch_7">
    <path d="M 118.229664 462.84375 
L 125.13487 462.84375 
L 125.13487 62.676578 
L 118.229664 62.676578 
z
" clip-path="url(#p7841dd0088)" style="fill: #1f77b4; opacity: 0.9"/>
   </g>
   <g id="patch_8">
    <path d="M 135.492679 462.84375 
L 142.397885 462.84375 
L 142.397885 99.999363 
L 135.492679 99.999363 
z
" clip-path="url(#p7841dd0088)" style="fill: #1f77b4; opacity: 0.9"/>
   </g>
   <g id="patch_9">
    <path d="M 152.755694 462.84375 
L 159.6609 462.84375 
L 159.6609 155.300924 
L 152.755694 155.300924 
z
" clip-path="url(#p7841dd0088)" style="fill: #1f77b4; opacity: 0.9"/>
   </g>
   <g id="patch_10">
    <path d="M 170.018709 462.84375 
L 176.923915 462.84375 
L 176.923915 169.506947 
L 170.018709 169.506947 
z
" clip-path="url(#p7841dd0088)" style="fill: #1f77b4; opacity: 0.9"/>
   </g>
   <g id="patch_11">
    <path d="M 187.281725 462.84375 
L 194.186931 462.84375 
L 194.186931 127.246342 
L 187.281725 127.246342 
z
" clip-path="url(#p7841dd0088)" style="fill: #1f77b4; opacity: 0.9"/>
   </g>
   <g id="patch_12">
    <path d="M 204.54474 462.84375 
L 211.449946 462.84375 
L 211.449946 170.837663 
L 204.54474 170.837663 
z
" clip-path="url(#p7841dd0088)" style="fill: #1f77b4; opacity: 0.9"/>
   </g>
   <g id="patch_13">
    <path d="M 221.807755 462.84375 
L 228.712961 462.84375 
L 228.712961 105.902554 
L 221.807755 105.902554 
z
" clip-path="url(#p7841dd0088)" style="fill: #1f77b4; opacity: 0.9"/>
   </g>
   <g id="patch_14">
    <path d="M 239.07077 462.84375 
L 245.975976 462.84375 
L 245.975976 117.827357 
L 239.07077 117.827357 
z
" clip-path="url(#p7841dd0088)" style="fill: #1f77b4; opacity: 0.9"/>
   </g>
   <g id="patch_15">
    <path d="M 256.333785 462.84375 
L 263.238991 462.84375 
L 263.238991 91.615677 
L 256.333785 91.615677 
z
" clip-path="url(#p7841dd0088)" style="fill: #1f77b4; opacity: 0.9"/>
   </g>
   <g id="patch_16">
    <path d="M 273.5968 462.84375 
L 280.502007 462.84375 
L 280.502007 127.188656 
L 273.5968 127.188656 
z
" clip-path="url(#p7841dd0088)" style="fill: #1f77b4; opacity: 0.9"/>
   </g>
   <g id="patch_17">
    <path d="M 290.859816 462.84375 
L 297.765022 462.84375 
L 297.765022 148.628587 
L 290.859816 148.628587 
z
" clip-path="url(#p7841dd0088)" style="fill: #1f77b4; opacity: 0.9"/>
   </g>
   <g id="patch_18">
    <path d="M 308.122831 462.84375 
L 315.028037 462.84375 
L 315.028037 155.470041 
L 308.122831 155.470041 
z
" clip-path="url(#p7841dd0088)" style="fill: #1f77b4; opacity: 0.9"/>
   </g>
   <g id="patch_19">
    <path d="M 325.385846 462.84375 
L 332.291052 462.84375 
L 332.291052 96.211321 
L 325.385846 96.211321 
z
" clip-path="url(#p7841dd0088)" style="fill: #1f77b4; opacity: 0.9"/>
   </g>
   <g id="patch_20">
    <path d="M 342.648861 462.84375 
L 349.554067 462.84375 
L 349.554067 167.395737 
L 342.648861 167.395737 
z
" clip-path="url(#p7841dd0088)" style="fill: #1f77b4; opacity: 0.9"/>
   </g>
   <g id="patch_21">
    <path d="M 359.911876 462.84375 
L 366.817082 462.84375 
L 366.817082 55.965783 
L 359.911876 55.965783 
z
" clip-path="url(#p7841dd0088)" style="fill: #1f77b4; opacity: 0.9"/>
   </g>
   <g id="patch_22">
    <path d="M 377.174892 462.84375 
L 384.080098 462.84375 
L 384.080098 113.666143 
L 377.174892 113.666143 
z
" clip-path="url(#p7841dd0088)" style="fill: #1f77b4; opacity: 0.9"/>
   </g>
   <g id="patch_23">
    <path d="M 394.437907 462.84375 
L 401.343113 462.84375 
L 401.343113 143.436855 
L 394.437907 143.436855 
z
" clip-path="url(#p7841dd0088)" style="fill: #1f77b4; opacity: 0.9"/>
   </g>
   <g id="patch_24">
    <path d="M 411.700922 462.84375 
L 418.606128 462.84375 
L 418.606128 149.801534 
L 411.700922 149.801534 
z
" clip-path="url(#p7841dd0088)" style="fill: #1f77b4; opacity: 0.9"/>
   </g>
   <g id="patch_25">
    <path d="M 428.963937 462.84375 
L 435.869143 462.84375 
L 435.869143 110.05594 
L 428.963937 110.05594 
z
" clip-path="url(#p7841dd0088)" style="fill: #1f77b4; opacity: 0.9"/>
   </g>
   <g id="patch_26">
    <path d="M 446.226952 462.84375 
L 453.132158 462.84375 
L 453.132158 38.572535 
L 446.226952 38.572535 
z
" clip-path="url(#p7841dd0088)" style="fill: #1f77b4; opacity: 0.9"/>
   </g>
   <g id="patch_27">
    <path d="M 463.489967 462.84375 
L 470.395174 462.84375 
L 470.395174 135.726171 
L 463.489967 135.726171 
z
" clip-path="url(#p7841dd0088)" style="fill: #1f77b4; opacity: 0.9"/>
   </g>
   <g id="patch_28">
    <path d="M 480.752983 462.84375 
L 487.658189 462.84375 
L 487.658189 64.426384 
L 480.752983 64.426384 
z
" clip-path="url(#p7841dd0088)" style="fill: #1f77b4; opacity: 0.9"/>
   </g>
   <g id="patch_29">
    <path d="M 498.015998 462.84375 
L 504.921204 462.84375 
L 504.921204 176.260139 
L 498.015998 176.260139 
z
" clip-path="url(#p7841dd0088)" style="fill: #1f77b4; opacity: 0.9"/>
   </g>
   <g id="patch_30">
    <path d="M 515.279013 462.84375 
L 522.184219 462.84375 
L 522.184219 144.94913 
L 515.279013 144.94913 
z
" clip-path="url(#p7841dd0088)" style="fill: #1f77b4; opacity: 0.9"/>
   </g>
   <g id="patch_31">
    <path d="M 532.542028 462.84375 
L 539.447234 462.84375 
L 539.447234 97.788069 
L 532.542028 97.788069 
z
" clip-path="url(#p7841dd0088)" style="fill: #1f77b4; opacity: 0.9"/>
   </g>
   <g id="patch_32">
    <path d="M 549.805043 462.84375 
L 556.710249 462.84375 
L 556.710249 93.69237 
L 549.805043 93.69237 
z
" clip-path="url(#p7841dd0088)" style="fill: #1f77b4; opacity: 0.9"/>
   </g>
   <g id="patch_33">
    <path d="M 567.068059 462.84375 
L 573.973265 462.84375 
L 573.973265 136.802975 
L 567.068059 136.802975 
z
" clip-path="url(#p7841dd0088)" style="fill: #1f77b4; opacity: 0.9"/>
   </g>
   <g id="patch_34">
    <path d="M 584.331074 462.84375 
L 591.23628 462.84375 
L 591.23628 153.916777 
L 584.331074 153.916777 
z
" clip-path="url(#p7841dd0088)" style="fill: #1f77b4; opacity: 0.9"/>
   </g>
   <g id="patch_35">
    <path d="M 601.594089 462.84375 
L 608.499295 462.84375 
L 608.499295 84.404938 
L 601.594089 84.404938 
z
" clip-path="url(#p7841dd0088)" style="fill: #1f77b4; opacity: 0.9"/>
   </g>
   <g id="patch_36">
    <path d="M 618.857104 462.84375 
L 625.76231 462.84375 
L 625.76231 149.859219 
L 618.857104 149.859219 
z
" clip-path="url(#p7841dd0088)" style="fill: #1f77b4; opacity: 0.9"/>
   </g>
   <g id="patch_37">
    <path d="M 636.120119 462.84375 
L 643.025325 462.84375 
L 643.025325 190.700845 
L 636.120119 190.700845 
z
" clip-path="url(#p7841dd0088)" style="fill: #1f77b4; opacity: 0.9"/>
   </g>
   <g id="patch_38">
    <path d="M 653.383134 462.84375 
L 660.288341 462.84375 
L 660.288341 145.24918 
L 653.383134 145.24918 
z
" clip-path="url(#p7841dd0088)" style="fill: #1f77b4; opacity: 0.9"/>
   </g>
   <g id="patch_39">
    <path d="M 670.64615 462.84375 
L 677.551356 462.84375 
L 677.551356 72.579326 
L 670.64615 72.579326 
z
" clip-path="url(#p7841dd0088)" style="fill: #1f77b4; opacity: 0.9"/>
   </g>
   <g id="patch_40">
    <path d="M 687.909165 462.84375 
L 694.814371 462.84375 
L 694.814371 144.994374 
L 687.909165 144.994374 
z
" clip-path="url(#p7841dd0088)" style="fill: #1f77b4; opacity: 0.9"/>
   </g>
   <g id="patch_41">
    <path d="M 705.17218 462.84375 
L 712.077386 462.84375 
L 712.077386 194.065857 
L 705.17218 194.065857 
z
" clip-path="url(#p7841dd0088)" style="fill: #1f77b4; opacity: 0.9"/>
   </g>
   <g id="patch_42">
    <path d="M 722.435195 462.84375 
L 729.340401 462.84375 
L 729.340401 134.683149 
L 722.435195 134.683149 
z
" clip-path="url(#p7841dd0088)" style="fill: #1f77b4; opacity: 0.9"/>
   </g>
   <g id="patch_43">
    <path d="M 739.69821 462.84375 
L 746.603416 462.84375 
L 746.603416 135.918457 
L 739.69821 135.918457 
z
" clip-path="url(#p7841dd0088)" style="fill: #1f77b4; opacity: 0.9"/>
   </g>
   <g id="patch_44">
    <path d="M 756.961226 462.84375 
L 763.866432 462.84375 
L 763.866432 153.37806 
L 756.961226 153.37806 
z
" clip-path="url(#p7841dd0088)" style="fill: #1f77b4; opacity: 0.9"/>
   </g>
   <g id="patch_45">
    <path d="M 774.224241 462.84375 
L 781.129447 462.84375 
L 781.129447 153.051173 
L 774.224241 153.051173 
z
" clip-path="url(#p7841dd0088)" style="fill: #1f77b4; opacity: 0.9"/>
   </g>
   <g id="patch_46">
    <path d="M 791.487256 462.84375 
L 798.392462 462.84375 
L 798.392462 135.948771 
L 791.487256 135.948771 
z
" clip-path="url(#p7841dd0088)" style="fill: #1f77b4; opacity: 0.9"/>
   </g>
   <g id="patch_47">
    <path d="M 808.750271 462.84375 
L 815.655477 462.84375 
L 815.655477 180.125095 
L 808.750271 180.125095 
z
" clip-path="url(#p7841dd0088)" style="fill: #1f77b4; opacity: 0.9"/>
   </g>
   <g id="patch_48">
    <path d="M 826.013286 462.84375 
L 832.918492 462.84375 
L 832.918492 199.237766 
L 826.013286 199.237766 
z
" clip-path="url(#p7841dd0088)" style="fill: #1f77b4; opacity: 0.9"/>
   </g>
   <g id="patch_49">
    <path d="M 56.082809 462.84375 
L 62.988015 462.84375 
L 62.988015 197.29468 
L 56.082809 197.29468 
z
" clip-path="url(#p7841dd0088)" style="fill: #2ca02c; opacity: 0.9"/>
   </g>
   <g id="patch_50">
    <path d="M 73.345824 462.84375 
L 80.25103 462.84375 
L 80.25103 236.885201 
L 73.345824 236.885201 
z
" clip-path="url(#p7841dd0088)" style="fill: #2ca02c; opacity: 0.9"/>
   </g>
   <g id="patch_51">
    <path d="M 90.608839 462.84375 
L 97.514046 462.84375 
L 97.514046 235.397166 
L 90.608839 235.397166 
z
" clip-path="url(#p7841dd0088)" style="fill: #2ca02c; opacity: 0.9"/>
   </g>
   <g id="patch_52">
    <path d="M 107.871855 462.84375 
L 114.777061 462.84375 
L 114.777061 202.435412 
L 107.871855 202.435412 
z
" clip-path="url(#p7841dd0088)" style="fill: #2ca02c; opacity: 0.9"/>
   </g>
   <g id="patch_53">
    <path d="M 125.13487 462.84375 
L 132.040076 462.84375 
L 132.040076 211.780791 
L 125.13487 211.780791 
z
" clip-path="url(#p7841dd0088)" style="fill: #2ca02c; opacity: 0.9"/>
   </g>
   <g id="patch_54">
    <path d="M 142.397885 462.84375 
L 149.303091 462.84375 
L 149.303091 198.188219 
L 142.397885 198.188219 
z
" clip-path="url(#p7841dd0088)" style="fill: #2ca02c; opacity: 0.9"/>
   </g>
   <g id="patch_55">
    <path d="M 159.6609 462.84375 
L 166.566106 462.84375 
L 166.566106 256.039269 
L 159.6609 256.039269 
z
" clip-path="url(#p7841dd0088)" style="fill: #2ca02c; opacity: 0.9"/>
   </g>
   <g id="patch_56">
    <path d="M 176.923915 462.84375 
L 183.829121 462.84375 
L 183.829121 254.205956 
L 176.923915 254.205956 
z
" clip-path="url(#p7841dd0088)" style="fill: #2ca02c; opacity: 0.9"/>
   </g>
   <g id="patch_57">
    <path d="M 194.186931 462.84375 
L 201.092137 462.84375 
L 201.092137 213.957614 
L 194.186931 213.957614 
z
" clip-path="url(#p7841dd0088)" style="fill: #2ca02c; opacity: 0.9"/>
   </g>
   <g id="patch_58">
    <path d="M 211.449946 462.84375 
L 218.355152 462.84375 
L 218.355152 281.088001 
L 211.449946 281.088001 
z
" clip-path="url(#p7841dd0088)" style="fill: #2ca02c; opacity: 0.9"/>
   </g>
   <g id="patch_59">
    <path d="M 228.712961 462.84375 
L 235.618167 462.84375 
L 235.618167 216.552919 
L 228.712961 216.552919 
z
" clip-path="url(#p7841dd0088)" style="fill: #2ca02c; opacity: 0.9"/>
   </g>
   <g id="patch_60">
    <path d="M 245.975976 462.84375 
L 252.881182 462.84375 
L 252.881182 189.063571 
L 245.975976 189.063571 
z
" clip-path="url(#p7841dd0088)" style="fill: #2ca02c; opacity: 0.9"/>
   </g>
   <g id="patch_61">
    <path d="M 263.238991 462.84375 
L 270.144197 462.84375 
L 270.144197 207.776478 
L 263.238991 207.776478 
z
" clip-path="url(#p7841dd0088)" style="fill: #2ca02c; opacity: 0.9"/>
   </g>
   <g id="patch_62">
    <path d="M 280.502007 462.84375 
L 287.407213 462.84375 
L 287.407213 264.927963 
L 280.502007 264.927963 
z
" clip-path="url(#p7841dd0088)" style="fill: #2ca02c; opacity: 0.9"/>
   </g>
   <g id="patch_63">
    <path d="M 297.765022 462.84375 
L 304.670228 462.84375 
L 304.670228 192.935645 
L 297.765022 192.935645 
z
" clip-path="url(#p7841dd0088)" style="fill: #2ca02c; opacity: 0.9"/>
   </g>
   <g id="patch_64">
    <path d="M 315.028037 462.84375 
L 321.933243 462.84375 
L 321.933243 219.084164 
L 315.028037 219.084164 
z
" clip-path="url(#p7841dd0088)" style="fill: #2ca02c; opacity: 0.9"/>
   </g>
   <g id="patch_65">
    <path d="M 332.291052 462.84375 
L 339.196258 462.84375 
L 339.196258 195.450127 
L 332.291052 195.450127 
z
" clip-path="url(#p7841dd0088)" style="fill: #2ca02c; opacity: 0.9"/>
   </g>
   <g id="patch_66">
    <path d="M 349.554067 462.84375 
L 356.459273 462.84375 
L 356.459273 231.828398 
L 349.554067 231.828398 
z
" clip-path="url(#p7841dd0088)" style="fill: #2ca02c; opacity: 0.9"/>
   </g>
   <g id="patch_67">
    <path d="M 366.817082 462.84375 
L 373.722289 462.84375 
L 373.722289 120.991821 
L 366.817082 120.991821 
z
" clip-path="url(#p7841dd0088)" style="fill: #2ca02c; opacity: 0.9"/>
   </g>
   <g id="patch_68">
    <path d="M 384.080098 462.84375 
L 390.985304 462.84375 
L 390.985304 173.769825 
L 384.080098 173.769825 
z
" clip-path="url(#p7841dd0088)" style="fill: #2ca02c; opacity: 0.9"/>
   </g>
   <g id="patch_69">
    <path d="M 401.343113 462.84375 
L 408.248319 462.84375 
L 408.248319 222.324553 
L 401.343113 222.324553 
z
" clip-path="url(#p7841dd0088)" style="fill: #2ca02c; opacity: 0.9"/>
   </g>
   <g id="patch_70">
    <path d="M 418.606128 462.84375 
L 425.511334 462.84375 
L 425.511334 198.085844 
L 418.606128 198.085844 
z
" clip-path="url(#p7841dd0088)" style="fill: #2ca02c; opacity: 0.9"/>
   </g>
   <g id="patch_71">
    <path d="M 435.869143 462.84375 
L 442.774349 462.84375 
L 442.774349 169.709913 
L 435.869143 169.709913 
z
" clip-path="url(#p7841dd0088)" style="fill: #2ca02c; opacity: 0.9"/>
   </g>
   <g id="patch_72">
    <path d="M 453.132158 462.84375 
L 460.037364 462.84375 
L 460.037364 143.231589 
L 453.132158 143.231589 
z
" clip-path="url(#p7841dd0088)" style="fill: #2ca02c; opacity: 0.9"/>
   </g>
   <g id="patch_73">
    <path d="M 470.395174 462.84375 
L 477.30038 462.84375 
L 477.30038 231.092014 
L 470.395174 231.092014 
z
" clip-path="url(#p7841dd0088)" style="fill: #2ca02c; opacity: 0.9"/>
   </g>
   <g id="patch_74">
    <path d="M 487.658189 462.84375 
L 494.563395 462.84375 
L 494.563395 124.677334 
L 487.658189 124.677334 
z
" clip-path="url(#p7841dd0088)" style="fill: #2ca02c; opacity: 0.9"/>
   </g>
   <g id="patch_75">
    <path d="M 504.921204 462.84375 
L 511.82641 462.84375 
L 511.82641 247.990232 
L 504.921204 247.990232 
z
" clip-path="url(#p7841dd0088)" style="fill: #2ca02c; opacity: 0.9"/>
   </g>
   <g id="patch_76">
    <path d="M 522.184219 462.84375 
L 529.089425 462.84375 
L 529.089425 197.297459 
L 522.184219 197.297459 
z
" clip-path="url(#p7841dd0088)" style="fill: #2ca02c; opacity: 0.9"/>
   </g>
   <g id="patch_77">
    <path d="M 539.447234 462.84375 
L 546.35244 462.84375 
L 546.35244 159.332286 
L 539.447234 159.332286 
z
" clip-path="url(#p7841dd0088)" style="fill: #2ca02c; opacity: 0.9"/>
   </g>
   <g id="patch_78">
    <path d="M 556.710249 462.84375 
L 563.615456 462.84375 
L 563.615456 217.1537 
L 556.710249 217.1537 
z
" clip-path="url(#p7841dd0088)" style="fill: #2ca02c; opacity: 0.9"/>
   </g>
   <g id="patch_79">
    <path d="M 573.973265 462.84375 
L 580.878471 462.84375 
L 580.878471 221.849496 
L 573.973265 221.849496 
z
" clip-path="url(#p7841dd0088)" style="fill: #2ca02c; opacity: 0.9"/>
   </g>
   <g id="patch_80">
    <path d="M 591.23628 462.84375 
L 598.141486 462.84375 
L 598.141486 155.283351 
L 591.23628 155.283351 
z
" clip-path="url(#p7841dd0088)" style="fill: #2ca02c; opacity: 0.9"/>
   </g>
   <g id="patch_81">
    <path d="M 608.499295 462.84375 
L 615.404501 462.84375 
L 615.404501 164.761771 
L 608.499295 164.761771 
z
" clip-path="url(#p7841dd0088)" style="fill: #2ca02c; opacity: 0.9"/>
   </g>
   <g id="patch_82">
    <path d="M 625.76231 462.84375 
L 632.667516 462.84375 
L 632.667516 208.37277 
L 625.76231 208.37277 
z
" clip-path="url(#p7841dd0088)" style="fill: #2ca02c; opacity: 0.9"/>
   </g>
   <g id="patch_83">
    <path d="M 643.025325 462.84375 
L 649.930531 462.84375 
L 649.930531 264.180803 
L 643.025325 264.180803 
z
" clip-path="url(#p7841dd0088)" style="fill: #2ca02c; opacity: 0.9"/>
   </g>
   <g id="patch_84">
    <path d="M 660.288341 462.84375 
L 667.193547 462.84375 
L 667.193547 143.738485 
L 660.288341 143.738485 
z
" clip-path="url(#p7841dd0088)" style="fill: #2ca02c; opacity: 0.9"/>
   </g>
   <g id="patch_85">
    <path d="M 677.551356 462.84375 
L 684.456562 462.84375 
L 684.456562 189.903 
L 677.551356 189.903 
z
" clip-path="url(#p7841dd0088)" style="fill: #2ca02c; opacity: 0.9"/>
   </g>
   <g id="patch_86">
    <path d="M 694.814371 462.84375 
L 701.719577 462.84375 
L 701.719577 218.04724 
L 694.814371 218.04724 
z
" clip-path="url(#p7841dd0088)" style="fill: #2ca02c; opacity: 0.9"/>
   </g>
   <g id="patch_87">
    <path d="M 712.077386 462.84375 
L 718.982592 462.84375 
L 718.982592 236.696615 
L 712.077386 236.696615 
z
" clip-path="url(#p7841dd0088)" style="fill: #2ca02c; opacity: 0.9"/>
   </g>
   <g id="patch_88">
    <path d="M 729.340401 462.84375 
L 736.245607 462.84375 
L 736.245607 205.988161 
L 729.340401 205.988161 
z
" clip-path="url(#p7841dd0088)" style="fill: #2ca02c; opacity: 0.9"/>
   </g>
   <g id="patch_89">
    <path d="M 746.603416 462.84375 
L 753.508623 462.84375 
L 753.508623 144.486963 
L 746.603416 144.486963 
z
" clip-path="url(#p7841dd0088)" style="fill: #2ca02c; opacity: 0.9"/>
   </g>
   <g id="patch_90">
    <path d="M 763.866432 462.84375 
L 770.771638 462.84375 
L 770.771638 191.271597 
L 763.866432 191.271597 
z
" clip-path="url(#p7841dd0088)" style="fill: #2ca02c; opacity: 0.9"/>
   </g>
   <g id="patch_91">
    <path d="M 781.129447 462.84375 
L 788.034653 462.84375 
L 788.034653 199.275732 
L 781.129447 199.275732 
z
" clip-path="url(#p7841dd0088)" style="fill: #2ca02c; opacity: 0.9"/>
   </g>
   <g id="patch_92">
    <path d="M 798.392462 462.84375 
L 805.297668 462.84375 
L 805.297668 250.492004 
L 798.392462 250.492004 
z
" clip-path="url(#p7841dd0088)" style="fill: #2ca02c; opacity: 0.9"/>
   </g>
   <g id="patch_93">
    <path d="M 815.655477 462.84375 
L 822.560683 462.84375 
L 822.560683 234.905046 
L 815.655477 234.905046 
z
" clip-path="url(#p7841dd0088)" style="fill: #2ca02c; opacity: 0.9"/>
   </g>
   <g id="patch_94">
    <path d="M 832.918492 462.84375 
L 839.823698 462.84375 
L 839.823698 270.274426 
L 832.918492 270.274426 
z
" clip-path="url(#p7841dd0088)" style="fill: #2ca02c; opacity: 0.9"/>
   </g>
   <g id="patch_95">
    <path d="M 49.177603 462.84375 
L 62.988015 462.84375 
L 62.988015 337.763052 
L 49.177603 337.763052 
z
" clip-path="url(#p7841dd0088)" style="fill: #666666; opacity: 0.9"/>
   </g>
   <g id="patch_96">
    <path d="M 66.440618 462.84375 
L 80.25103 462.84375 
L 80.25103 356.396845 
L 66.440618 356.396845 
z
" clip-path="url(#p7841dd0088)" style="fill: #666666; opacity: 0.9"/>
   </g>
   <g id="patch_97">
    <path d="M 83.703633 462.84375 
L 97.514046 462.84375 
L 97.514046 325.119281 
L 83.703633 325.119281 
z
" clip-path="url(#p7841dd0088)" style="fill: #666666; opacity: 0.9"/>
   </g>
   <g id="patch_98">
    <path d="M 100.966649 462.84375 
L 114.777061 462.84375 
L 114.777061 292.806169 
L 100.966649 292.806169 
z
" clip-path="url(#p7841dd0088)" style="fill: #666666; opacity: 0.9"/>
   </g>
   <g id="patch_99">
    <path d="M 118.229664 462.84375 
L 132.040076 462.84375 
L 132.040076 313.739537 
L 118.229664 313.739537 
z
" clip-path="url(#p7841dd0088)" style="fill: #666666; opacity: 0.9"/>
   </g>
   <g id="patch_100">
    <path d="M 135.492679 462.84375 
L 149.303091 462.84375 
L 149.303091 364.654894 
L 135.492679 364.654894 
z
" clip-path="url(#p7841dd0088)" style="fill: #666666; opacity: 0.9"/>
   </g>
   <g id="patch_101">
    <path d="M 152.755694 462.84375 
L 166.566106 462.84375 
L 166.566106 362.105405 
L 152.755694 362.105405 
z
" clip-path="url(#p7841dd0088)" style="fill: #666666; opacity: 0.9"/>
   </g>
   <g id="patch_102">
    <path d="M 170.018709 462.84375 
L 183.829121 462.84375 
L 183.829121 378.14474 
L 170.018709 378.14474 
z
" clip-path="url(#p7841dd0088)" style="fill: #666666; opacity: 0.9"/>
   </g>
   <g id="patch_103">
    <path d="M 187.281725 462.84375 
L 201.092137 462.84375 
L 201.092137 376.132478 
L 187.281725 376.132478 
z
" clip-path="url(#p7841dd0088)" style="fill: #666666; opacity: 0.9"/>
   </g>
   <g id="patch_104">
    <path d="M 204.54474 462.84375 
L 218.355152 462.84375 
L 218.355152 352.593412 
L 204.54474 352.593412 
z
" clip-path="url(#p7841dd0088)" style="fill: #666666; opacity: 0.9"/>
   </g>
   <g id="patch_105">
    <path d="M 221.807755 462.84375 
L 235.618167 462.84375 
L 235.618167 352.193386 
L 221.807755 352.193386 
z
" clip-path="url(#p7841dd0088)" style="fill: #666666; opacity: 0.9"/>
   </g>
   <g id="patch_106">
    <path d="M 239.07077 462.84375 
L 252.881182 462.84375 
L 252.881182 391.607536 
L 239.07077 391.607536 
z
" clip-path="url(#p7841dd0088)" style="fill: #666666; opacity: 0.9"/>
   </g>
   <g id="patch_107">
    <path d="M 256.333785 462.84375 
L 270.144197 462.84375 
L 270.144197 346.682949 
L 256.333785 346.682949 
z
" clip-path="url(#p7841dd0088)" style="fill: #666666; opacity: 0.9"/>
   </g>
   <g id="patch_108">
    <path d="M 273.5968 462.84375 
L 287.407213 462.84375 
L 287.407213 325.104443 
L 273.5968 325.104443 
z
" clip-path="url(#p7841dd0088)" style="fill: #666666; opacity: 0.9"/>
   </g>
   <g id="patch_109">
    <path d="M 290.859816 462.84375 
L 304.670228 462.84375 
L 304.670228 418.536691 
L 290.859816 418.536691 
z
" clip-path="url(#p7841dd0088)" style="fill: #666666; opacity: 0.9"/>
   </g>
   <g id="patch_110">
    <path d="M 308.122831 462.84375 
L 321.933243 462.84375 
L 321.933243 399.229627 
L 308.122831 399.229627 
z
" clip-path="url(#p7841dd0088)" style="fill: #666666; opacity: 0.9"/>
   </g>
   <g id="patch_111">
    <path d="M 325.385846 462.84375 
L 339.196258 462.84375 
L 339.196258 363.604944 
L 325.385846 363.604944 
z
" clip-path="url(#p7841dd0088)" style="fill: #666666; opacity: 0.9"/>
   </g>
   <g id="patch_112">
    <path d="M 342.648861 462.84375 
L 356.459273 462.84375 
L 356.459273 398.411089 
L 342.648861 398.411089 
z
" clip-path="url(#p7841dd0088)" style="fill: #666666; opacity: 0.9"/>
   </g>
   <g id="patch_113">
    <path d="M 359.911876 462.84375 
L 373.722289 462.84375 
L 373.722289 397.817712 
L 359.911876 397.817712 
z
" clip-path="url(#p7841dd0088)" style="fill: #666666; opacity: 0.9"/>
   </g>
   <g id="patch_114">
    <path d="M 377.174892 462.84375 
L 390.985304 462.84375 
L 390.985304 402.740068 
L 377.174892 402.740068 
z
" clip-path="url(#p7841dd0088)" style="fill: #666666; opacity: 0.9"/>
   </g>
   <g id="patch_115">
    <path d="M 394.437907 462.84375 
L 408.248319 462.84375 
L 408.248319 383.956051 
L 394.437907 383.956051 
z
" clip-path="url(#p7841dd0088)" style="fill: #666666; opacity: 0.9"/>
   </g>
   <g id="patch_116">
    <path d="M 411.700922 462.84375 
L 425.511334 462.84375 
L 425.511334 414.55944 
L 411.700922 414.55944 
z
" clip-path="url(#p7841dd0088)" style="fill: #666666; opacity: 0.9"/>
   </g>
   <g id="patch_117">
    <path d="M 428.963937 462.84375 
L 442.774349 462.84375 
L 442.774349 403.189777 
L 428.963937 403.189777 
z
" clip-path="url(#p7841dd0088)" style="fill: #666666; opacity: 0.9"/>
   </g>
   <g id="patch_118">
    <path d="M 446.226952 462.84375 
L 460.037364 462.84375 
L 460.037364 358.184696 
L 446.226952 358.184696 
z
" clip-path="url(#p7841dd0088)" style="fill: #666666; opacity: 0.9"/>
   </g>
   <g id="patch_119">
    <path d="M 463.489967 462.84375 
L 477.30038 462.84375 
L 477.30038 367.477907 
L 463.489967 367.477907 
z
" clip-path="url(#p7841dd0088)" style="fill: #666666; opacity: 0.9"/>
   </g>
   <g id="patch_120">
    <path d="M 480.752983 462.84375 
L 494.563395 462.84375 
L 494.563395 402.5928 
L 480.752983 402.5928 
z
" clip-path="url(#p7841dd0088)" style="fill: #666666; opacity: 0.9"/>
   </g>
   <g id="patch_121">
    <path d="M 498.015998 462.84375 
L 511.82641 462.84375 
L 511.82641 391.113657 
L 498.015998 391.113657 
z
" clip-path="url(#p7841dd0088)" style="fill: #666666; opacity: 0.9"/>
   </g>
   <g id="patch_122">
    <path d="M 515.279013 462.84375 
L 529.089425 462.84375 
L 529.089425 410.495421 
L 515.279013 410.495421 
z
" clip-path="url(#p7841dd0088)" style="fill: #666666; opacity: 0.9"/>
   </g>
   <g id="patch_123">
    <path d="M 532.542028 462.84375 
L 546.35244 462.84375 
L 546.35244 401.299534 
L 532.542028 401.299534 
z
" clip-path="url(#p7841dd0088)" style="fill: #666666; opacity: 0.9"/>
   </g>
   <g id="patch_124">
    <path d="M 549.805043 462.84375 
L 563.615456 462.84375 
L 563.615456 339.382419 
L 549.805043 339.382419 
z
" clip-path="url(#p7841dd0088)" style="fill: #666666; opacity: 0.9"/>
   </g>
   <g id="patch_125">
    <path d="M 567.068059 462.84375 
L 580.878471 462.84375 
L 580.878471 377.797229 
L 567.068059 377.797229 
z
" clip-path="url(#p7841dd0088)" style="fill: #666666; opacity: 0.9"/>
   </g>
   <g id="patch_126">
    <path d="M 584.331074 462.84375 
L 598.141486 462.84375 
L 598.141486 461.477176 
L 584.331074 461.477176 
z
" clip-path="url(#p7841dd0088)" style="fill: #666666; opacity: 0.9"/>
   </g>
   <g id="patch_127">
    <path d="M 601.594089 462.84375 
L 615.404501 462.84375 
L 615.404501 382.486917 
L 601.594089 382.486917 
z
" clip-path="url(#p7841dd0088)" style="fill: #666666; opacity: 0.9"/>
   </g>
   <g id="patch_128">
    <path d="M 618.857104 462.84375 
L 632.667516 462.84375 
L 632.667516 404.3302 
L 618.857104 404.3302 
z
" clip-path="url(#p7841dd0088)" style="fill: #666666; opacity: 0.9"/>
   </g>
   <g id="patch_129">
    <path d="M 636.120119 462.84375 
L 649.930531 462.84375 
L 649.930531 389.363793 
L 636.120119 389.363793 
z
" clip-path="url(#p7841dd0088)" style="fill: #666666; opacity: 0.9"/>
   </g>
   <g id="patch_130">
    <path d="M 653.383134 462.84375 
L 667.193547 462.84375 
L 667.193547 464.354445 
L 653.383134 464.354445 
z
" clip-path="url(#p7841dd0088)" style="fill: #666666; opacity: 0.9"/>
   </g>
   <g id="patch_131">
    <path d="M 670.64615 462.84375 
L 684.456562 462.84375 
L 684.456562 345.520076 
L 670.64615 345.520076 
z
" clip-path="url(#p7841dd0088)" style="fill: #666666; opacity: 0.9"/>
   </g>
   <g id="patch_132">
    <path d="M 687.909165 462.84375 
L 701.719577 462.84375 
L 701.719577 389.790885 
L 687.909165 389.790885 
z
" clip-path="url(#p7841dd0088)" style="fill: #666666; opacity: 0.9"/>
   </g>
   <g id="patch_133">
    <path d="M 705.17218 462.84375 
L 718.982592 462.84375 
L 718.982592 420.212992 
L 705.17218 420.212992 
z
" clip-path="url(#p7841dd0088)" style="fill: #666666; opacity: 0.9"/>
   </g>
   <g id="patch_134">
    <path d="M 722.435195 462.84375 
L 736.245607 462.84375 
L 736.245607 391.538738 
L 722.435195 391.538738 
z
" clip-path="url(#p7841dd0088)" style="fill: #666666; opacity: 0.9"/>
   </g>
   <g id="patch_135">
    <path d="M 739.69821 462.84375 
L 753.508623 462.84375 
L 753.508623 454.275245 
L 739.69821 454.275245 
z
" clip-path="url(#p7841dd0088)" style="fill: #666666; opacity: 0.9"/>
   </g>
   <g id="patch_136">
    <path d="M 756.961226 462.84375 
L 770.771638 462.84375 
L 770.771638 424.950213 
L 756.961226 424.950213 
z
" clip-path="url(#p7841dd0088)" style="fill: #666666; opacity: 0.9"/>
   </g>
   <g id="patch_137">
    <path d="M 774.224241 462.84375 
L 788.034653 462.84375 
L 788.034653 416.619191 
L 774.224241 416.619191 
z
" clip-path="url(#p7841dd0088)" style="fill: #666666; opacity: 0.9"/>
   </g>
   <g id="patch_138">
    <path d="M 791.487256 462.84375 
L 805.297668 462.84375 
L 805.297668 348.300517 
L 791.487256 348.300517 
z
" clip-path="url(#p7841dd0088)" style="fill: #666666; opacity: 0.9"/>
   </g>
   <g id="patch_139">
    <path d="M 808.750271 462.84375 
L 822.560683 462.84375 
L 822.560683 408.063798 
L 808.750271 408.063798 
z
" clip-path="url(#p7841dd0088)" style="fill: #666666; opacity: 0.9"/>
   </g>
   <g id="patch_140">
    <path d="M 826.013286 462.84375 
L 839.823698 462.84375 
L 839.823698 391.80709 
L 826.013286 391.80709 
z
" clip-path="url(#p7841dd0088)" style="fill: #666666; opacity: 0.9"/>
   </g>
   <g id="matplotlib.axis_1">
    <g id="xtick_1">
     <g id="line2d_1">
      <path d="M 107.871855 462.84375 
L 107.871855 10.8 
" clip-path="url(#p7841dd0088)" style="fill: none; stroke: #b0b0b0; stroke-width: 0.8; stroke-linecap: square"/>
     </g>
     <g id="line2d_2">
      <defs>
       <path id="m2b0ecd50f2" d="M 0 0 
L 0 3.5 
" style="stroke: #000000; stroke-width: 0.8"/>
      </defs>
      <g>
       <use xlink:href="#m2b0ecd50f2" x="107.871855" y="462.84375" style="stroke: #000000; stroke-width: 0.8"/>
      </g>
     </g>
     <g id="text_1">
      <!-- 1980 -->
      <g transform="translate(95.146855 477.442188) scale(0.1 -0.1)">
       <defs>
        <path id="DejaVuSans-31" d="M 794 531 
L 1825 531 
L 1825 4091 
L 703 3866 
L 703 4441 
L 1819 4666 
L 2450 4666 
L 2450 531 
L 3481 531 
L 3481 0 
L 794 0 
L 794 531 
z
" transform="scale(0.015625)"/>
        <path id="DejaVuSans-39" d="M 703 97 
L 703 672 
Q 941 559 1184 500 
Q 1428 441 1663 441 
Q 2288 441 2617 861 
Q 2947 1281 2994 2138 
Q 2813 1869 2534 1725 
Q 2256 1581 1919 1581 
Q 1219 1581 811 2004 
Q 403 2428 403 3163 
Q 403 3881 828 4315 
Q 1253 4750 1959 4750 
Q 2769 4750 3195 4129 
Q 3622 3509 3622 2328 
Q 3622 1225 3098 567 
Q 2575 -91 1691 -91 
Q 1453 -91 1209 -44 
Q 966 3 703 97 
z
M 1959 2075 
Q 2384 2075 2632 2365 
Q 2881 2656 2881 3163 
Q 2881 3666 2632 3958 
Q 2384 4250 1959 4250 
Q 1534 4250 1286 3958 
Q 1038 3666 1038 3163 
Q 1038 2656 1286 2365 
Q 1534 2075 1959 2075 
z
" transform="scale(0.015625)"/>
        <path id="DejaVuSans-38" d="M 2034 2216 
Q 1584 2216 1326 1975 
Q 1069 1734 1069 1313 
Q 1069 891 1326 650 
Q 1584 409 2034 409 
Q 2484 409 2743 651 
Q 3003 894 3003 1313 
Q 3003 1734 2745 1975 
Q 2488 2216 2034 2216 
z
M 1403 2484 
Q 997 2584 770 2862 
Q 544 3141 544 3541 
Q 544 4100 942 4425 
Q 1341 4750 2034 4750 
Q 2731 4750 3128 4425 
Q 3525 4100 3525 3541 
Q 3525 3141 3298 2862 
Q 3072 2584 2669 2484 
Q 3125 2378 3379 2068 
Q 3634 1759 3634 1313 
Q 3634 634 3220 271 
Q 2806 -91 2034 -91 
Q 1263 -91 848 271 
Q 434 634 434 1313 
Q 434 1759 690 2068 
Q 947 2378 1403 2484 
z
M 1172 3481 
Q 1172 3119 1398 2916 
Q 1625 2713 2034 2713 
Q 2441 2713 2670 2916 
Q 2900 3119 2900 3481 
Q 2900 3844 2670 4047 
Q 2441 4250 2034 4250 
Q 1625 4250 1398 4047 
Q 1172 3844 1172 3481 
z
" transform="scale(0.015625)"/>
        <path id="DejaVuSans-30" d="M 2034 4250 
Q 1547 4250 1301 3770 
Q 1056 3291 1056 2328 
Q 1056 1369 1301 889 
Q 1547 409 2034 409 
Q 2525 409 2770 889 
Q 3016 1369 3016 2328 
Q 3016 3291 2770 3770 
Q 2525 4250 2034 4250 
z
M 2034 4750 
Q 2819 4750 3233 4129 
Q 3647 3509 3647 2328 
Q 3647 1150 3233 529 
Q 2819 -91 2034 -91 
Q 1250 -91 836 529 
Q 422 1150 422 2328 
Q 422 3509 836 4129 
Q 1250 4750 2034 4750 
z
" transform="scale(0.015625)"/>
       </defs>
       <use xlink:href="#DejaVuSans-31"/>
       <use xlink:href="#DejaVuSans-39" x="63.623047"/>
       <use xlink:href="#DejaVuSans-38" x="127.246094"/>
       <use xlink:href="#DejaVuSans-30" x="190.869141"/>
      </g>
     </g>
    </g>
    <g id="xtick_2">
     <g id="line2d_3">
      <path d="M 280.502007 462.84375 
L 280.502007 10.8 
" clip-path="url(#p7841dd0088)" style="fill: none; stroke: #b0b0b0; stroke-width: 0.8; stroke-linecap: square"/>
     </g>
     <g id="line2d_4">
      <g>
       <use xlink:href="#m2b0ecd50f2" x="280.502007" y="462.84375" style="stroke: #000000; stroke-width: 0.8"/>
      </g>
     </g>
     <g id="text_2">
      <!-- 1990 -->
      <g transform="translate(267.777007 477.442188) scale(0.1 -0.1)">
       <use xlink:href="#DejaVuSans-31"/>
       <use xlink:href="#DejaVuSans-39" x="63.623047"/>
       <use xlink:href="#DejaVuSans-39" x="127.246094"/>
       <use xlink:href="#DejaVuSans-30" x="190.869141"/>
      </g>
     </g>
    </g>
    <g id="xtick_3">
     <g id="line2d_5">
      <path d="M 453.132158 462.84375 
L 453.132158 10.8 
" clip-path="url(#p7841dd0088)" style="fill: none; stroke: #b0b0b0; stroke-width: 0.8; stroke-linecap: square"/>
     </g>
     <g id="line2d_6">
      <g>
       <use xlink:href="#m2b0ecd50f2" x="453.132158" y="462.84375" style="stroke: #000000; stroke-width: 0.8"/>
      </g>
     </g>
     <g id="text_3">
      <!-- 2000 -->
      <g transform="translate(440.407158 477.442188) scale(0.1 -0.1)">
       <defs>
        <path id="DejaVuSans-32" d="M 1228 531 
L 3431 531 
L 3431 0 
L 469 0 
L 469 531 
Q 828 903 1448 1529 
Q 2069 2156 2228 2338 
Q 2531 2678 2651 2914 
Q 2772 3150 2772 3378 
Q 2772 3750 2511 3984 
Q 2250 4219 1831 4219 
Q 1534 4219 1204 4116 
Q 875 4013 500 3803 
L 500 4441 
Q 881 4594 1212 4672 
Q 1544 4750 1819 4750 
Q 2544 4750 2975 4387 
Q 3406 4025 3406 3419 
Q 3406 3131 3298 2873 
Q 3191 2616 2906 2266 
Q 2828 2175 2409 1742 
Q 1991 1309 1228 531 
z
" transform="scale(0.015625)"/>
       </defs>
       <use xlink:href="#DejaVuSans-32"/>
       <use xlink:href="#DejaVuSans-30" x="63.623047"/>
       <use xlink:href="#DejaVuSans-30" x="127.246094"/>
       <use xlink:href="#DejaVuSans-30" x="190.869141"/>
      </g>
     </g>
    </g>
    <g id="xtick_4">
     <g id="line2d_7">
      <path d="M 625.76231 462.84375 
L 625.76231 10.8 
" clip-path="url(#p7841dd0088)" style="fill: none; stroke: #b0b0b0; stroke-width: 0.8; stroke-linecap: square"/>
     </g>
     <g id="line2d_8">
      <g>
       <use xlink:href="#m2b0ecd50f2" x="625.76231" y="462.84375" style="stroke: #000000; stroke-width: 0.8"/>
      </g>
     </g>
     <g id="text_4">
      <!-- 2010 -->
      <g transform="translate(613.03731 477.442188) scale(0.1 -0.1)">
       <use xlink:href="#DejaVuSans-32"/>
       <use xlink:href="#DejaVuSans-30" x="63.623047"/>
       <use xlink:href="#DejaVuSans-31" x="127.246094"/>
       <use xlink:href="#DejaVuSans-30" x="190.869141"/>
      </g>
     </g>
    </g>
    <g id="xtick_5">
     <g id="line2d_9">
      <path d="M 798.392462 462.84375 
L 798.392462 10.8 
" clip-path="url(#p7841dd0088)" style="fill: none; stroke: #b0b0b0; stroke-width: 0.8; stroke-linecap: square"/>
     </g>
     <g id="line2d_10">
      <g>
       <use xlink:href="#m2b0ecd50f2" x="798.392462" y="462.84375" style="stroke: #000000; stroke-width: 0.8"/>
      </g>
     </g>
     <g id="text_5">
      <!-- 2020 -->
      <g transform="translate(785.667462 477.442188) scale(0.1 -0.1)">
       <use xlink:href="#DejaVuSans-32"/>
       <use xlink:href="#DejaVuSans-30" x="63.623047"/>
       <use xlink:href="#DejaVuSans-32" x="127.246094"/>
       <use xlink:href="#DejaVuSans-30" x="190.869141"/>
      </g>
     </g>
    </g>
    <g id="text_6">
     <!-- Datum -->
     <g transform="translate(426.724219 491.120313) scale(0.1 -0.1)">
      <defs>
       <path id="DejaVuSans-44" d="M 1259 4147 
L 1259 519 
L 2022 519 
Q 2988 519 3436 956 
Q 3884 1394 3884 2338 
Q 3884 3275 3436 3711 
Q 2988 4147 2022 4147 
L 1259 4147 
z
M 628 4666 
L 1925 4666 
Q 3281 4666 3915 4102 
Q 4550 3538 4550 2338 
Q 4550 1131 3912 565 
Q 3275 0 1925 0 
L 628 0 
L 628 4666 
z
" transform="scale(0.015625)"/>
       <path id="DejaVuSans-61" d="M 2194 1759 
Q 1497 1759 1228 1600 
Q 959 1441 959 1056 
Q 959 750 1161 570 
Q 1363 391 1709 391 
Q 2188 391 2477 730 
Q 2766 1069 2766 1631 
L 2766 1759 
L 2194 1759 
z
M 3341 1997 
L 3341 0 
L 2766 0 
L 2766 531 
Q 2569 213 2275 61 
Q 1981 -91 1556 -91 
Q 1019 -91 701 211 
Q 384 513 384 1019 
Q 384 1609 779 1909 
Q 1175 2209 1959 2209 
L 2766 2209 
L 2766 2266 
Q 2766 2663 2505 2880 
Q 2244 3097 1772 3097 
Q 1472 3097 1187 3025 
Q 903 2953 641 2809 
L 641 3341 
Q 956 3463 1253 3523 
Q 1550 3584 1831 3584 
Q 2591 3584 2966 3190 
Q 3341 2797 3341 1997 
z
" transform="scale(0.015625)"/>
       <path id="DejaVuSans-74" d="M 1172 4494 
L 1172 3500 
L 2356 3500 
L 2356 3053 
L 1172 3053 
L 1172 1153 
Q 1172 725 1289 603 
Q 1406 481 1766 481 
L 2356 481 
L 2356 0 
L 1766 0 
Q 1100 0 847 248 
Q 594 497 594 1153 
L 594 3053 
L 172 3053 
L 172 3500 
L 594 3500 
L 594 4494 
L 1172 4494 
z
" transform="scale(0.015625)"/>
       <path id="DejaVuSans-75" d="M 544 1381 
L 544 3500 
L 1119 3500 
L 1119 1403 
Q 1119 906 1312 657 
Q 1506 409 1894 409 
Q 2359 409 2629 706 
Q 2900 1003 2900 1516 
L 2900 3500 
L 3475 3500 
L 3475 0 
L 2900 0 
L 2900 538 
Q 2691 219 2414 64 
Q 2138 -91 1772 -91 
Q 1169 -91 856 284 
Q 544 659 544 1381 
z
M 1991 3584 
L 1991 3584 
z
" transform="scale(0.015625)"/>
       <path id="DejaVuSans-6d" d="M 3328 2828 
Q 3544 3216 3844 3400 
Q 4144 3584 4550 3584 
Q 5097 3584 5394 3201 
Q 5691 2819 5691 2113 
L 5691 0 
L 5113 0 
L 5113 2094 
Q 5113 2597 4934 2840 
Q 4756 3084 4391 3084 
Q 3944 3084 3684 2787 
Q 3425 2491 3425 1978 
L 3425 0 
L 2847 0 
L 2847 2094 
Q 2847 2600 2669 2842 
Q 2491 3084 2119 3084 
Q 1678 3084 1418 2786 
Q 1159 2488 1159 1978 
L 1159 0 
L 581 0 
L 581 3500 
L 1159 3500 
L 1159 2956 
Q 1356 3278 1631 3431 
Q 1906 3584 2284 3584 
Q 2666 3584 2933 3390 
Q 3200 3197 3328 2828 
z
" transform="scale(0.015625)"/>
      </defs>
      <use xlink:href="#DejaVuSans-44"/>
      <use xlink:href="#DejaVuSans-61" x="77.001953"/>
      <use xlink:href="#DejaVuSans-74" x="138.28125"/>
      <use xlink:href="#DejaVuSans-75" x="177.490234"/>
      <use xlink:href="#DejaVuSans-6d" x="240.869141"/>
     </g>
    </g>
   </g>
   <g id="matplotlib.axis_2">
    <g id="ytick_1">
     <g id="line2d_11">
      <path d="M 45.725 462.84375 
L 841.55 462.84375 
" clip-path="url(#p7841dd0088)" style="fill: none; stroke: #b0b0b0; stroke-width: 0.8; stroke-linecap: square"/>
     </g>
     <g id="line2d_12">
      <defs>
       <path id="m42809b2a17" d="M 0 0 
L -3.5 0 
" style="stroke: #000000; stroke-width: 0.8"/>
      </defs>
      <g>
       <use xlink:href="#m42809b2a17" x="45.725" y="462.84375" style="stroke: #000000; stroke-width: 0.8"/>
      </g>
     </g>
     <g id="text_7">
      <!-- 0 -->
      <g transform="translate(32.3625 466.642969) scale(0.1 -0.1)">
       <use xlink:href="#DejaVuSans-30"/>
      </g>
     </g>
    </g>
    <g id="ytick_2">
     <g id="line2d_13">
      <path d="M 45.725 410.910031 
L 841.55 410.910031 
" clip-path="url(#p7841dd0088)" style="fill: none; stroke: #b0b0b0; stroke-width: 0.8; stroke-linecap: square"/>
     </g>
     <g id="line2d_14">
      <g>
       <use xlink:href="#m42809b2a17" x="45.725" y="410.910031" style="stroke: #000000; stroke-width: 0.8"/>
      </g>
     </g>
     <g id="text_8">
      <!-- 5 -->
      <g transform="translate(32.3625 414.70925) scale(0.1 -0.1)">
       <defs>
        <path id="DejaVuSans-35" d="M 691 4666 
L 3169 4666 
L 3169 4134 
L 1269 4134 
L 1269 2991 
Q 1406 3038 1543 3061 
Q 1681 3084 1819 3084 
Q 2600 3084 3056 2656 
Q 3513 2228 3513 1497 
Q 3513 744 3044 326 
Q 2575 -91 1722 -91 
Q 1428 -91 1123 -41 
Q 819 9 494 109 
L 494 744 
Q 775 591 1075 516 
Q 1375 441 1709 441 
Q 2250 441 2565 725 
Q 2881 1009 2881 1497 
Q 2881 1984 2565 2268 
Q 2250 2553 1709 2553 
Q 1456 2553 1204 2497 
Q 953 2441 691 2322 
L 691 4666 
z
" transform="scale(0.015625)"/>
       </defs>
       <use xlink:href="#DejaVuSans-35"/>
      </g>
     </g>
    </g>
    <g id="ytick_3">
     <g id="line2d_15">
      <path d="M 45.725 358.976312 
L 841.55 358.976312 
" clip-path="url(#p7841dd0088)" style="fill: none; stroke: #b0b0b0; stroke-width: 0.8; stroke-linecap: square"/>
     </g>
     <g id="line2d_16">
      <g>
       <use xlink:href="#m42809b2a17" x="45.725" y="358.976312" style="stroke: #000000; stroke-width: 0.8"/>
      </g>
     </g>
     <g id="text_9">
      <!-- 10 -->
      <g transform="translate(26 362.77553) scale(0.1 -0.1)">
       <use xlink:href="#DejaVuSans-31"/>
       <use xlink:href="#DejaVuSans-30" x="63.623047"/>
      </g>
     </g>
    </g>
    <g id="ytick_4">
     <g id="line2d_17">
      <path d="M 45.725 307.042593 
L 841.55 307.042593 
" clip-path="url(#p7841dd0088)" style="fill: none; stroke: #b0b0b0; stroke-width: 0.8; stroke-linecap: square"/>
     </g>
     <g id="line2d_18">
      <g>
       <use xlink:href="#m42809b2a17" x="45.725" y="307.042593" style="stroke: #000000; stroke-width: 0.8"/>
      </g>
     </g>
     <g id="text_10">
      <!-- 15 -->
      <g transform="translate(26 310.841811) scale(0.1 -0.1)">
       <use xlink:href="#DejaVuSans-31"/>
       <use xlink:href="#DejaVuSans-35" x="63.623047"/>
      </g>
     </g>
    </g>
    <g id="ytick_5">
     <g id="line2d_19">
      <path d="M 45.725 255.108873 
L 841.55 255.108873 
" clip-path="url(#p7841dd0088)" style="fill: none; stroke: #b0b0b0; stroke-width: 0.8; stroke-linecap: square"/>
     </g>
     <g id="line2d_20">
      <g>
       <use xlink:href="#m42809b2a17" x="45.725" y="255.108873" style="stroke: #000000; stroke-width: 0.8"/>
      </g>
     </g>
     <g id="text_11">
      <!-- 20 -->
      <g transform="translate(26 258.908092) scale(0.1 -0.1)">
       <use xlink:href="#DejaVuSans-32"/>
       <use xlink:href="#DejaVuSans-30" x="63.623047"/>
      </g>
     </g>
    </g>
    <g id="ytick_6">
     <g id="line2d_21">
      <path d="M 45.725 203.175154 
L 841.55 203.175154 
" clip-path="url(#p7841dd0088)" style="fill: none; stroke: #b0b0b0; stroke-width: 0.8; stroke-linecap: square"/>
     </g>
     <g id="line2d_22">
      <g>
       <use xlink:href="#m42809b2a17" x="45.725" y="203.175154" style="stroke: #000000; stroke-width: 0.8"/>
      </g>
     </g>
     <g id="text_12">
      <!-- 25 -->
      <g transform="translate(26 206.974373) scale(0.1 -0.1)">
       <use xlink:href="#DejaVuSans-32"/>
       <use xlink:href="#DejaVuSans-35" x="63.623047"/>
      </g>
     </g>
    </g>
    <g id="ytick_7">
     <g id="line2d_23">
      <path d="M 45.725 151.241435 
L 841.55 151.241435 
" clip-path="url(#p7841dd0088)" style="fill: none; stroke: #b0b0b0; stroke-width: 0.8; stroke-linecap: square"/>
     </g>
     <g id="line2d_24">
      <g>
       <use xlink:href="#m42809b2a17" x="45.725" y="151.241435" style="stroke: #000000; stroke-width: 0.8"/>
      </g>
     </g>
     <g id="text_13">
      <!-- 30 -->
      <g transform="translate(26 155.040654) scale(0.1 -0.1)">
       <defs>
        <path id="DejaVuSans-33" d="M 2597 2516 
Q 3050 2419 3304 2112 
Q 3559 1806 3559 1356 
Q 3559 666 3084 287 
Q 2609 -91 1734 -91 
Q 1441 -91 1130 -33 
Q 819 25 488 141 
L 488 750 
Q 750 597 1062 519 
Q 1375 441 1716 441 
Q 2309 441 2620 675 
Q 2931 909 2931 1356 
Q 2931 1769 2642 2001 
Q 2353 2234 1838 2234 
L 1294 2234 
L 1294 2753 
L 1863 2753 
Q 2328 2753 2575 2939 
Q 2822 3125 2822 3475 
Q 2822 3834 2567 4026 
Q 2313 4219 1838 4219 
Q 1578 4219 1281 4162 
Q 984 4106 628 3988 
L 628 4550 
Q 988 4650 1302 4700 
Q 1616 4750 1894 4750 
Q 2613 4750 3031 4423 
Q 3450 4097 3450 3541 
Q 3450 3153 3228 2886 
Q 3006 2619 2597 2516 
z
" transform="scale(0.015625)"/>
       </defs>
       <use xlink:href="#DejaVuSans-33"/>
       <use xlink:href="#DejaVuSans-30" x="63.623047"/>
      </g>
     </g>
    </g>
    <g id="ytick_8">
     <g id="line2d_25">
      <path d="M 45.725 99.307716 
L 841.55 99.307716 
" clip-path="url(#p7841dd0088)" style="fill: none; stroke: #b0b0b0; stroke-width: 0.8; stroke-linecap: square"/>
     </g>
     <g id="line2d_26">
      <g>
       <use xlink:href="#m42809b2a17" x="45.725" y="99.307716" style="stroke: #000000; stroke-width: 0.8"/>
      </g>
     </g>
     <g id="text_14">
      <!-- 35 -->
      <g transform="translate(26 103.106935) scale(0.1 -0.1)">
       <use xlink:href="#DejaVuSans-33"/>
       <use xlink:href="#DejaVuSans-35" x="63.623047"/>
      </g>
     </g>
    </g>
    <g id="ytick_9">
     <g id="line2d_27">
      <path d="M 45.725 47.373997 
L 841.55 47.373997 
" clip-path="url(#p7841dd0088)" style="fill: none; stroke: #b0b0b0; stroke-width: 0.8; stroke-linecap: square"/>
     </g>
     <g id="line2d_28">
      <g>
       <use xlink:href="#m42809b2a17" x="45.725" y="47.373997" style="stroke: #000000; stroke-width: 0.8"/>
      </g>
     </g>
     <g id="text_15">
      <!-- 40 -->
      <g transform="translate(26 51.173215) scale(0.1 -0.1)">
       <defs>
        <path id="DejaVuSans-34" d="M 2419 4116 
L 825 1625 
L 2419 1625 
L 2419 4116 
z
M 2253 4666 
L 3047 4666 
L 3047 1625 
L 3713 1625 
L 3713 1100 
L 3047 1100 
L 3047 0 
L 2419 0 
L 2419 1100 
L 313 1100 
L 313 1709 
L 2253 4666 
z
" transform="scale(0.015625)"/>
       </defs>
       <use xlink:href="#DejaVuSans-34"/>
       <use xlink:href="#DejaVuSans-30" x="63.623047"/>
      </g>
     </g>
    </g>
    <g id="text_16">
     <!-- Jahreswassermenge [$Millionen\;m^3$] -->
     <g transform="translate(19.9 323.821875) rotate(-90) scale(0.1 -0.1)">
      <defs>
       <path id="DejaVuSans-4a" d="M 628 4666 
L 1259 4666 
L 1259 325 
Q 1259 -519 939 -900 
Q 619 -1281 -91 -1281 
L -331 -1281 
L -331 -750 
L -134 -750 
Q 284 -750 456 -515 
Q 628 -281 628 325 
L 628 4666 
z
" transform="scale(0.015625)"/>
       <path id="DejaVuSans-68" d="M 3513 2113 
L 3513 0 
L 2938 0 
L 2938 2094 
Q 2938 2591 2744 2837 
Q 2550 3084 2163 3084 
Q 1697 3084 1428 2787 
Q 1159 2491 1159 1978 
L 1159 0 
L 581 0 
L 581 4863 
L 1159 4863 
L 1159 2956 
Q 1366 3272 1645 3428 
Q 1925 3584 2291 3584 
Q 2894 3584 3203 3211 
Q 3513 2838 3513 2113 
z
" transform="scale(0.015625)"/>
       <path id="DejaVuSans-72" d="M 2631 2963 
Q 2534 3019 2420 3045 
Q 2306 3072 2169 3072 
Q 1681 3072 1420 2755 
Q 1159 2438 1159 1844 
L 1159 0 
L 581 0 
L 581 3500 
L 1159 3500 
L 1159 2956 
Q 1341 3275 1631 3429 
Q 1922 3584 2338 3584 
Q 2397 3584 2469 3576 
Q 2541 3569 2628 3553 
L 2631 2963 
z
" transform="scale(0.015625)"/>
       <path id="DejaVuSans-65" d="M 3597 1894 
L 3597 1613 
L 953 1613 
Q 991 1019 1311 708 
Q 1631 397 2203 397 
Q 2534 397 2845 478 
Q 3156 559 3463 722 
L 3463 178 
Q 3153 47 2828 -22 
Q 2503 -91 2169 -91 
Q 1331 -91 842 396 
Q 353 884 353 1716 
Q 353 2575 817 3079 
Q 1281 3584 2069 3584 
Q 2775 3584 3186 3129 
Q 3597 2675 3597 1894 
z
M 3022 2063 
Q 3016 2534 2758 2815 
Q 2500 3097 2075 3097 
Q 1594 3097 1305 2825 
Q 1016 2553 972 2059 
L 3022 2063 
z
" transform="scale(0.015625)"/>
       <path id="DejaVuSans-73" d="M 2834 3397 
L 2834 2853 
Q 2591 2978 2328 3040 
Q 2066 3103 1784 3103 
Q 1356 3103 1142 2972 
Q 928 2841 928 2578 
Q 928 2378 1081 2264 
Q 1234 2150 1697 2047 
L 1894 2003 
Q 2506 1872 2764 1633 
Q 3022 1394 3022 966 
Q 3022 478 2636 193 
Q 2250 -91 1575 -91 
Q 1294 -91 989 -36 
Q 684 19 347 128 
L 347 722 
Q 666 556 975 473 
Q 1284 391 1588 391 
Q 1994 391 2212 530 
Q 2431 669 2431 922 
Q 2431 1156 2273 1281 
Q 2116 1406 1581 1522 
L 1381 1569 
Q 847 1681 609 1914 
Q 372 2147 372 2553 
Q 372 3047 722 3315 
Q 1072 3584 1716 3584 
Q 2034 3584 2315 3537 
Q 2597 3491 2834 3397 
z
" transform="scale(0.015625)"/>
       <path id="DejaVuSans-77" d="M 269 3500 
L 844 3500 
L 1563 769 
L 2278 3500 
L 2956 3500 
L 3675 769 
L 4391 3500 
L 4966 3500 
L 4050 0 
L 3372 0 
L 2619 2869 
L 1863 0 
L 1184 0 
L 269 3500 
z
" transform="scale(0.015625)"/>
       <path id="DejaVuSans-6e" d="M 3513 2113 
L 3513 0 
L 2938 0 
L 2938 2094 
Q 2938 2591 2744 2837 
Q 2550 3084 2163 3084 
Q 1697 3084 1428 2787 
Q 1159 2491 1159 1978 
L 1159 0 
L 581 0 
L 581 3500 
L 1159 3500 
L 1159 2956 
Q 1366 3272 1645 3428 
Q 1925 3584 2291 3584 
Q 2894 3584 3203 3211 
Q 3513 2838 3513 2113 
z
" transform="scale(0.015625)"/>
       <path id="DejaVuSans-67" d="M 2906 1791 
Q 2906 2416 2648 2759 
Q 2391 3103 1925 3103 
Q 1463 3103 1205 2759 
Q 947 2416 947 1791 
Q 947 1169 1205 825 
Q 1463 481 1925 481 
Q 2391 481 2648 825 
Q 2906 1169 2906 1791 
z
M 3481 434 
Q 3481 -459 3084 -895 
Q 2688 -1331 1869 -1331 
Q 1566 -1331 1297 -1286 
Q 1028 -1241 775 -1147 
L 775 -588 
Q 1028 -725 1275 -790 
Q 1522 -856 1778 -856 
Q 2344 -856 2625 -561 
Q 2906 -266 2906 331 
L 2906 616 
Q 2728 306 2450 153 
Q 2172 0 1784 0 
Q 1141 0 747 490 
Q 353 981 353 1791 
Q 353 2603 747 3093 
Q 1141 3584 1784 3584 
Q 2172 3584 2450 3431 
Q 2728 3278 2906 2969 
L 2906 3500 
L 3481 3500 
L 3481 434 
z
" transform="scale(0.015625)"/>
       <path id="DejaVuSans-20" transform="scale(0.015625)"/>
       <path id="DejaVuSans-5b" d="M 550 4863 
L 1875 4863 
L 1875 4416 
L 1125 4416 
L 1125 -397 
L 1875 -397 
L 1875 -844 
L 550 -844 
L 550 4863 
z
" transform="scale(0.015625)"/>
       <path id="DejaVuSans-Oblique-4d" d="M 1081 4666 
L 2028 4666 
L 2572 1522 
L 4378 4666 
L 5350 4666 
L 4441 0 
L 3828 0 
L 4622 4091 
L 2791 897 
L 2175 897 
L 1581 4103 
L 788 0 
L 172 0 
L 1081 4666 
z
" transform="scale(0.015625)"/>
       <path id="DejaVuSans-Oblique-69" d="M 1172 4863 
L 1747 4863 
L 1606 4134 
L 1031 4134 
L 1172 4863 
z
M 909 3500 
L 1484 3500 
L 800 0 
L 225 0 
L 909 3500 
z
" transform="scale(0.015625)"/>
       <path id="DejaVuSans-Oblique-6c" d="M 1172 4863 
L 1747 4863 
L 800 0 
L 225 0 
L 1172 4863 
z
" transform="scale(0.015625)"/>
       <path id="DejaVuSans-Oblique-6f" d="M 1625 -91 
Q 1009 -91 651 289 
Q 294 669 294 1325 
Q 294 1706 417 2101 
Q 541 2497 738 2766 
Q 1047 3184 1428 3384 
Q 1809 3584 2291 3584 
Q 2888 3584 3255 3212 
Q 3622 2841 3622 2241 
Q 3622 1825 3500 1412 
Q 3378 1000 3181 728 
Q 2875 309 2494 109 
Q 2113 -91 1625 -91 
z
M 891 1344 
Q 891 869 1089 633 
Q 1288 397 1691 397 
Q 2269 397 2648 901 
Q 3028 1406 3028 2181 
Q 3028 2634 2825 2865 
Q 2622 3097 2228 3097 
Q 1903 3097 1650 2945 
Q 1397 2794 1197 2484 
Q 1050 2253 970 1956 
Q 891 1659 891 1344 
z
" transform="scale(0.015625)"/>
       <path id="DejaVuSans-Oblique-6e" d="M 3566 2113 
L 3156 0 
L 2578 0 
L 2988 2091 
Q 3016 2238 3031 2350 
Q 3047 2463 3047 2528 
Q 3047 2791 2881 2937 
Q 2716 3084 2419 3084 
Q 1956 3084 1622 2776 
Q 1288 2469 1184 1941 
L 800 0 
L 225 0 
L 903 3500 
L 1478 3500 
L 1363 2950 
Q 1603 3253 1940 3418 
Q 2278 3584 2650 3584 
Q 3113 3584 3367 3334 
Q 3622 3084 3622 2631 
Q 3622 2519 3608 2391 
Q 3594 2263 3566 2113 
z
" transform="scale(0.015625)"/>
       <path id="DejaVuSans-Oblique-65" d="M 3078 2063 
Q 3088 2113 3092 2166 
Q 3097 2219 3097 2272 
Q 3097 2653 2873 2875 
Q 2650 3097 2266 3097 
Q 1838 3097 1509 2826 
Q 1181 2556 1013 2059 
L 3078 2063 
z
M 3578 1613 
L 903 1613 
Q 884 1494 878 1425 
Q 872 1356 872 1306 
Q 872 872 1139 634 
Q 1406 397 1894 397 
Q 2269 397 2603 481 
Q 2938 566 3225 728 
L 3116 159 
Q 2806 34 2476 -28 
Q 2147 -91 1806 -91 
Q 1078 -91 686 257 
Q 294 606 294 1247 
Q 294 1794 489 2264 
Q 684 2734 1063 3103 
Q 1306 3334 1642 3459 
Q 1978 3584 2356 3584 
Q 2950 3584 3301 3228 
Q 3653 2872 3653 2272 
Q 3653 2128 3634 1964 
Q 3616 1800 3578 1613 
z
" transform="scale(0.015625)"/>
       <path id="DejaVuSans-Oblique-6d" d="M 5747 2113 
L 5338 0 
L 4763 0 
L 5166 2094 
Q 5191 2228 5203 2325 
Q 5216 2422 5216 2491 
Q 5216 2772 5059 2928 
Q 4903 3084 4622 3084 
Q 4203 3084 3875 2770 
Q 3547 2456 3450 1953 
L 3066 0 
L 2491 0 
L 2900 2094 
Q 2925 2209 2937 2307 
Q 2950 2406 2950 2484 
Q 2950 2769 2794 2926 
Q 2638 3084 2363 3084 
Q 1938 3084 1609 2770 
Q 1281 2456 1184 1953 
L 800 0 
L 225 0 
L 909 3500 
L 1484 3500 
L 1375 2956 
Q 1609 3263 1923 3423 
Q 2238 3584 2597 3584 
Q 2978 3584 3223 3384 
Q 3469 3184 3519 2828 
Q 3781 3197 4126 3390 
Q 4472 3584 4856 3584 
Q 5306 3584 5551 3325 
Q 5797 3066 5797 2591 
Q 5797 2488 5784 2364 
Q 5772 2241 5747 2113 
z
" transform="scale(0.015625)"/>
       <path id="DejaVuSans-5d" d="M 1947 4863 
L 1947 -844 
L 622 -844 
L 622 -397 
L 1369 -397 
L 1369 4416 
L 622 4416 
L 622 4863 
L 1947 4863 
z
" transform="scale(0.015625)"/>
      </defs>
      <use xlink:href="#DejaVuSans-4a" transform="translate(0 0.765625)"/>
      <use xlink:href="#DejaVuSans-61" transform="translate(29.492188 0.765625)"/>
      <use xlink:href="#DejaVuSans-68" transform="translate(90.771484 0.765625)"/>
      <use xlink:href="#DejaVuSans-72" transform="translate(154.150391 0.765625)"/>
      <use xlink:href="#DejaVuSans-65" transform="translate(195.263672 0.765625)"/>
      <use xlink:href="#DejaVuSans-73" transform="translate(256.787109 0.765625)"/>
      <use xlink:href="#DejaVuSans-77" transform="translate(308.886719 0.765625)"/>
      <use xlink:href="#DejaVuSans-61" transform="translate(390.673828 0.765625)"/>
      <use xlink:href="#DejaVuSans-73" transform="translate(451.953125 0.765625)"/>
      <use xlink:href="#DejaVuSans-73" transform="translate(504.052734 0.765625)"/>
      <use xlink:href="#DejaVuSans-65" transform="translate(556.152344 0.765625)"/>
      <use xlink:href="#DejaVuSans-72" transform="translate(617.675781 0.765625)"/>
      <use xlink:href="#DejaVuSans-6d" transform="translate(658.789062 0.765625)"/>
      <use xlink:href="#DejaVuSans-65" transform="translate(756.201172 0.765625)"/>
      <use xlink:href="#DejaVuSans-6e" transform="translate(817.724609 0.765625)"/>
      <use xlink:href="#DejaVuSans-67" transform="translate(881.103516 0.765625)"/>
      <use xlink:href="#DejaVuSans-65" transform="translate(944.580078 0.765625)"/>
      <use xlink:href="#DejaVuSans-20" transform="translate(1006.103516 0.765625)"/>
      <use xlink:href="#DejaVuSans-5b" transform="translate(1037.890625 0.765625)"/>
      <use xlink:href="#DejaVuSans-Oblique-4d" transform="translate(1076.904297 0.765625)"/>
      <use xlink:href="#DejaVuSans-Oblique-69" transform="translate(1163.183594 0.765625)"/>
      <use xlink:href="#DejaVuSans-Oblique-6c" transform="translate(1190.966797 0.765625)"/>
      <use xlink:href="#DejaVuSans-Oblique-6c" transform="translate(1218.75 0.765625)"/>
      <use xlink:href="#DejaVuSans-Oblique-69" transform="translate(1246.533203 0.765625)"/>
      <use xlink:href="#DejaVuSans-Oblique-6f" transform="translate(1274.316406 0.765625)"/>
      <use xlink:href="#DejaVuSans-Oblique-6e" transform="translate(1335.498047 0.765625)"/>
      <use xlink:href="#DejaVuSans-Oblique-65" transform="translate(1398.876953 0.765625)"/>
      <use xlink:href="#DejaVuSans-Oblique-6e" transform="translate(1460.400391 0.765625)"/>
      <use xlink:href="#DejaVuSans-Oblique-6d" transform="translate(1550.838433 0.765625)"/>
      <use xlink:href="#DejaVuSans-33" transform="translate(1652.900438 39.046875) scale(0.7)"/>
      <use xlink:href="#DejaVuSans-5d" transform="translate(1700.170946 0.765625)"/>
     </g>
    </g>
   </g>
   <g id="line2d_29">
    <path d="M 228.712961 114.908124 
L 245.975976 118.469267 
L 263.238991 119.437429 
L 280.502007 120.056592 
L 297.765022 120.365327 
L 315.028037 124.017806 
L 332.291052 122.239157 
L 349.554067 123.287118 
L 366.817082 122.059227 
L 384.080098 120.586314 
L 401.343113 116.729049 
L 418.606128 118.27407 
L 435.869143 120.078541 
L 453.132158 119.718004 
L 470.395174 120.851532 
L 487.658189 122.955145 
L 504.921204 122.444102 
L 522.184219 121.262502 
L 539.447234 120.142434 
L 556.710249 127.047438 
L 573.973265 128.098288 
L 591.23628 127.722368 
L 608.499295 127.901195 
L 625.76231 130.050956 
L 643.025325 134.919768 
L 660.288341 137.139714 
L 677.551356 143.880284 
" clip-path="url(#p7841dd0088)" style="fill: none; stroke: #00008b; stroke-width: 3; stroke-linecap: square"/>
   </g>
   <g id="line2d_30">
    <path d="M 228.712961 214.982661 
L 245.975976 216.234155 
L 263.238991 214.294187 
L 280.502007 211.009824 
L 297.765022 208.049633 
L 315.028037 209.015194 
L 332.291052 205.33965 
L 349.554067 204.937198 
L 366.817082 202.091773 
L 384.080098 199.360507 
L 401.343113 196.163792 
L 418.606128 196.428621 
L 435.869143 194.73961 
L 453.132158 192.588874 
L 470.395174 189.761114 
L 487.658189 193.323372 
L 504.921204 189.556088 
L 522.184219 189.278732 
L 539.447234 188.589674 
L 556.710249 194.374914 
L 573.973265 195.985831 
L 591.23628 192.093951 
L 608.499295 191.753239 
L 625.76231 193.23153 
L 643.025325 198.59455 
L 660.288341 198.785202 
L 677.551356 206.065057 
" clip-path="url(#p7841dd0088)" style="fill: none; stroke: #006400; stroke-width: 3; stroke-linecap: square"/>
   </g>
   <g id="line2d_31">
    <path d="M 228.712961 362.769213 
L 245.975976 365.078863 
L 263.238991 367.986993 
L 280.502007 371.890517 
L 297.765022 375.159444 
L 315.028037 377.846362 
L 332.291052 379.743258 
L 349.554067 381.19367 
L 366.817082 382.811204 
L 384.080098 384.069557 
L 401.343113 383.409007 
L 418.606128 384.6892 
L 435.869143 388.182682 
L 453.132158 389.97288 
L 470.395174 393.934168 
L 487.658189 392.475523 
L 504.921204 395.731764 
L 522.184219 394.82752 
L 539.447234 394.39651 
L 556.710249 395.516274 
L 573.973265 394.956208 
L 591.23628 398.472167 
L 608.499295 398.991706 
L 625.76231 399.663177 
L 643.025325 399.168968 
L 660.288341 401.198262 
L 677.551356 400.658977 
" clip-path="url(#p7841dd0088)" style="fill: none; stroke: #000000; stroke-width: 3; stroke-linecap: square"/>
   </g>
   <g id="line2d_32">
    <path d="M 45.725 452.457006 
L 841.55 452.457006 
" clip-path="url(#p7841dd0088)" style="fill: none; stroke: #000000; stroke-opacity: 0.8; stroke-width: 1.5; stroke-linecap: square"/>
   </g>
   <g id="patch_141">
    <path d="M 45.725 462.84375 
L 45.725 10.8 
" style="fill: none; stroke: #000000; stroke-width: 0.8; stroke-linejoin: miter; stroke-linecap: square"/>
   </g>
   <g id="patch_142">
    <path d="M 841.55 462.84375 
L 841.55 10.8 
" style="fill: none; stroke: #000000; stroke-width: 0.8; stroke-linejoin: miter; stroke-linecap: square"/>
   </g>
   <g id="patch_143">
    <path d="M 45.725 462.84375 
L 841.55 462.84375 
" style="fill: none; stroke: #000000; stroke-width: 0.8; stroke-linejoin: miter; stroke-linecap: square"/>
   </g>
   <g id="patch_144">
    <path d="M 45.725 10.8 
L 841.55 10.8 
" style="fill: none; stroke: #000000; stroke-width: 0.8; stroke-linejoin: miter; stroke-linecap: square"/>
   </g>
   <g id="legend_1">
    <g id="patch_145">
     <path d="M 639.173437 62.834375 
L 834.55 62.834375 
Q 836.55 62.834375 836.55 60.834375 
L 836.55 17.8 
Q 836.55 15.8 834.55 15.8 
L 639.173437 15.8 
Q 637.173437 15.8 637.173437 17.8 
L 637.173437 60.834375 
Q 637.173437 62.834375 639.173437 62.834375 
z
" style="fill: #ffffff; opacity: 0.8; stroke: #cccccc; stroke-linejoin: miter"/>
    </g>
    <g id="patch_146">
     <path d="M 641.173437 27.398438 
L 661.173437 27.398438 
L 661.173437 20.398438 
L 641.173437 20.398438 
z
" style="fill: #1f77b4; opacity: 0.9"/>
    </g>
    <g id="text_17">
     <!-- Jahresgebietsniederschlag -->
     <g transform="translate(669.173437 27.398438) scale(0.1 -0.1)">
      <defs>
       <path id="DejaVuSans-62" d="M 3116 1747 
Q 3116 2381 2855 2742 
Q 2594 3103 2138 3103 
Q 1681 3103 1420 2742 
Q 1159 2381 1159 1747 
Q 1159 1113 1420 752 
Q 1681 391 2138 391 
Q 2594 391 2855 752 
Q 3116 1113 3116 1747 
z
M 1159 2969 
Q 1341 3281 1617 3432 
Q 1894 3584 2278 3584 
Q 2916 3584 3314 3078 
Q 3713 2572 3713 1747 
Q 3713 922 3314 415 
Q 2916 -91 2278 -91 
Q 1894 -91 1617 61 
Q 1341 213 1159 525 
L 1159 0 
L 581 0 
L 581 4863 
L 1159 4863 
L 1159 2969 
z
" transform="scale(0.015625)"/>
       <path id="DejaVuSans-69" d="M 603 3500 
L 1178 3500 
L 1178 0 
L 603 0 
L 603 3500 
z
M 603 4863 
L 1178 4863 
L 1178 4134 
L 603 4134 
L 603 4863 
z
" transform="scale(0.015625)"/>
       <path id="DejaVuSans-64" d="M 2906 2969 
L 2906 4863 
L 3481 4863 
L 3481 0 
L 2906 0 
L 2906 525 
Q 2725 213 2448 61 
Q 2172 -91 1784 -91 
Q 1150 -91 751 415 
Q 353 922 353 1747 
Q 353 2572 751 3078 
Q 1150 3584 1784 3584 
Q 2172 3584 2448 3432 
Q 2725 3281 2906 2969 
z
M 947 1747 
Q 947 1113 1208 752 
Q 1469 391 1925 391 
Q 2381 391 2643 752 
Q 2906 1113 2906 1747 
Q 2906 2381 2643 2742 
Q 2381 3103 1925 3103 
Q 1469 3103 1208 2742 
Q 947 2381 947 1747 
z
" transform="scale(0.015625)"/>
       <path id="DejaVuSans-63" d="M 3122 3366 
L 3122 2828 
Q 2878 2963 2633 3030 
Q 2388 3097 2138 3097 
Q 1578 3097 1268 2742 
Q 959 2388 959 1747 
Q 959 1106 1268 751 
Q 1578 397 2138 397 
Q 2388 397 2633 464 
Q 2878 531 3122 666 
L 3122 134 
Q 2881 22 2623 -34 
Q 2366 -91 2075 -91 
Q 1284 -91 818 406 
Q 353 903 353 1747 
Q 353 2603 823 3093 
Q 1294 3584 2113 3584 
Q 2378 3584 2631 3529 
Q 2884 3475 3122 3366 
z
" transform="scale(0.015625)"/>
       <path id="DejaVuSans-6c" d="M 603 4863 
L 1178 4863 
L 1178 0 
L 603 0 
L 603 4863 
z
" transform="scale(0.015625)"/>
      </defs>
      <use xlink:href="#DejaVuSans-4a"/>
      <use xlink:href="#DejaVuSans-61" x="29.492188"/>
      <use xlink:href="#DejaVuSans-68" x="90.771484"/>
      <use xlink:href="#DejaVuSans-72" x="154.150391"/>
      <use xlink:href="#DejaVuSans-65" x="193.013672"/>
      <use xlink:href="#DejaVuSans-73" x="254.537109"/>
      <use xlink:href="#DejaVuSans-67" x="306.636719"/>
      <use xlink:href="#DejaVuSans-65" x="370.113281"/>
      <use xlink:href="#DejaVuSans-62" x="431.636719"/>
      <use xlink:href="#DejaVuSans-69" x="495.113281"/>
      <use xlink:href="#DejaVuSans-65" x="522.896484"/>
      <use xlink:href="#DejaVuSans-74" x="584.419922"/>
      <use xlink:href="#DejaVuSans-73" x="623.628906"/>
      <use xlink:href="#DejaVuSans-6e" x="675.728516"/>
      <use xlink:href="#DejaVuSans-69" x="739.107422"/>
      <use xlink:href="#DejaVuSans-65" x="766.890625"/>
      <use xlink:href="#DejaVuSans-64" x="828.414062"/>
      <use xlink:href="#DejaVuSans-65" x="891.890625"/>
      <use xlink:href="#DejaVuSans-72" x="953.414062"/>
      <use xlink:href="#DejaVuSans-73" x="994.527344"/>
      <use xlink:href="#DejaVuSans-63" x="1046.626953"/>
      <use xlink:href="#DejaVuSans-68" x="1101.607422"/>
      <use xlink:href="#DejaVuSans-6c" x="1164.986328"/>
      <use xlink:href="#DejaVuSans-61" x="1192.769531"/>
      <use xlink:href="#DejaVuSans-67" x="1254.048828"/>
     </g>
    </g>
    <g id="patch_147">
     <path d="M 641.173437 42.076563 
L 661.173437 42.076563 
L 661.173437 35.076563 
L 641.173437 35.076563 
z
" style="fill: #2ca02c; opacity: 0.9"/>
    </g>
    <g id="text_18">
     <!-- Jahresabfluss -->
     <g transform="translate(669.173437 42.076563) scale(0.1 -0.1)">
      <defs>
       <path id="DejaVuSans-66" d="M 2375 4863 
L 2375 4384 
L 1825 4384 
Q 1516 4384 1395 4259 
Q 1275 4134 1275 3809 
L 1275 3500 
L 2222 3500 
L 2222 3053 
L 1275 3053 
L 1275 0 
L 697 0 
L 697 3053 
L 147 3053 
L 147 3500 
L 697 3500 
L 697 3744 
Q 697 4328 969 4595 
Q 1241 4863 1831 4863 
L 2375 4863 
z
" transform="scale(0.015625)"/>
      </defs>
      <use xlink:href="#DejaVuSans-4a"/>
      <use xlink:href="#DejaVuSans-61" x="29.492188"/>
      <use xlink:href="#DejaVuSans-68" x="90.771484"/>
      <use xlink:href="#DejaVuSans-72" x="154.150391"/>
      <use xlink:href="#DejaVuSans-65" x="193.013672"/>
      <use xlink:href="#DejaVuSans-73" x="254.537109"/>
      <use xlink:href="#DejaVuSans-61" x="306.636719"/>
      <use xlink:href="#DejaVuSans-62" x="367.916016"/>
      <use xlink:href="#DejaVuSans-66" x="431.392578"/>
      <use xlink:href="#DejaVuSans-6c" x="466.597656"/>
      <use xlink:href="#DejaVuSans-75" x="494.380859"/>
      <use xlink:href="#DejaVuSans-73" x="557.759766"/>
      <use xlink:href="#DejaVuSans-73" x="609.859375"/>
     </g>
    </g>
    <g id="patch_148">
     <path d="M 641.173437 56.754687 
L 661.173437 56.754687 
L 661.173437 49.754687 
L 641.173437 49.754687 
z
" style="fill: #666666; opacity: 0.9"/>
    </g>
    <g id="text_19">
     <!-- Differenz: Niederschlag - Abfluss -->
     <g transform="translate(669.173437 56.754687) scale(0.1 -0.1)">
      <defs>
       <path id="DejaVuSans-7a" d="M 353 3500 
L 3084 3500 
L 3084 2975 
L 922 459 
L 3084 459 
L 3084 0 
L 275 0 
L 275 525 
L 2438 3041 
L 353 3041 
L 353 3500 
z
" transform="scale(0.015625)"/>
       <path id="DejaVuSans-3a" d="M 750 794 
L 1409 794 
L 1409 0 
L 750 0 
L 750 794 
z
M 750 3309 
L 1409 3309 
L 1409 2516 
L 750 2516 
L 750 3309 
z
" transform="scale(0.015625)"/>
       <path id="DejaVuSans-4e" d="M 628 4666 
L 1478 4666 
L 3547 763 
L 3547 4666 
L 4159 4666 
L 4159 0 
L 3309 0 
L 1241 3903 
L 1241 0 
L 628 0 
L 628 4666 
z
" transform="scale(0.015625)"/>
       <path id="DejaVuSans-2d" d="M 313 2009 
L 1997 2009 
L 1997 1497 
L 313 1497 
L 313 2009 
z
" transform="scale(0.015625)"/>
       <path id="DejaVuSans-41" d="M 2188 4044 
L 1331 1722 
L 3047 1722 
L 2188 4044 
z
M 1831 4666 
L 2547 4666 
L 4325 0 
L 3669 0 
L 3244 1197 
L 1141 1197 
L 716 0 
L 50 0 
L 1831 4666 
z
" transform="scale(0.015625)"/>
      </defs>
      <use xlink:href="#DejaVuSans-44"/>
      <use xlink:href="#DejaVuSans-69" x="77.001953"/>
      <use xlink:href="#DejaVuSans-66" x="104.785156"/>
      <use xlink:href="#DejaVuSans-66" x="139.990234"/>
      <use xlink:href="#DejaVuSans-65" x="175.195312"/>
      <use xlink:href="#DejaVuSans-72" x="236.71875"/>
      <use xlink:href="#DejaVuSans-65" x="275.582031"/>
      <use xlink:href="#DejaVuSans-6e" x="337.105469"/>
      <use xlink:href="#DejaVuSans-7a" x="400.484375"/>
      <use xlink:href="#DejaVuSans-3a" x="452.974609"/>
      <use xlink:href="#DejaVuSans-20" x="486.666016"/>
      <use xlink:href="#DejaVuSans-4e" x="518.453125"/>
      <use xlink:href="#DejaVuSans-69" x="593.257812"/>
      <use xlink:href="#DejaVuSans-65" x="621.041016"/>
      <use xlink:href="#DejaVuSans-64" x="682.564453"/>
      <use xlink:href="#DejaVuSans-65" x="746.041016"/>
      <use xlink:href="#DejaVuSans-72" x="807.564453"/>
      <use xlink:href="#DejaVuSans-73" x="848.677734"/>
      <use xlink:href="#DejaVuSans-63" x="900.777344"/>
      <use xlink:href="#DejaVuSans-68" x="955.757812"/>
      <use xlink:href="#DejaVuSans-6c" x="1019.136719"/>
      <use xlink:href="#DejaVuSans-61" x="1046.919922"/>
      <use xlink:href="#DejaVuSans-67" x="1108.199219"/>
      <use xlink:href="#DejaVuSans-20" x="1171.675781"/>
      <use xlink:href="#DejaVuSans-2d" x="1203.462891"/>
      <use xlink:href="#DejaVuSans-20" x="1239.546875"/>
      <use xlink:href="#DejaVuSans-41" x="1271.333984"/>
      <use xlink:href="#DejaVuSans-62" x="1339.742188"/>
      <use xlink:href="#DejaVuSans-66" x="1403.21875"/>
      <use xlink:href="#DejaVuSans-6c" x="1438.423828"/>
      <use xlink:href="#DejaVuSans-75" x="1466.207031"/>
      <use xlink:href="#DejaVuSans-73" x="1529.585938"/>
      <use xlink:href="#DejaVuSans-73" x="1581.685547"/>
     </g>
    </g>
   </g>
  </g>
  <g id="axes_2">
   <g id="matplotlib.axis_3">
    <g id="ytick_10">
     <g id="line2d_33">
      <defs>
       <path id="m62c196599e" d="M 0 0 
L 3.5 0 
" style="stroke: #000000; stroke-width: 0.8"/>
      </defs>
      <g>
       <use xlink:href="#m62c196599e" x="841.55" y="462.84375" style="stroke: #000000; stroke-width: 0.8"/>
      </g>
     </g>
     <g id="text_20">
      <!-- 0 -->
      <g transform="translate(848.55 466.642969) scale(0.1 -0.1)">
       <use xlink:href="#DejaVuSans-30"/>
      </g>
     </g>
    </g>
    <g id="ytick_11">
     <g id="line2d_34">
      <g>
       <use xlink:href="#m62c196599e" x="841.55" y="410.910031" style="stroke: #000000; stroke-width: 0.8"/>
      </g>
     </g>
     <g id="text_21">
      <!-- 270 -->
      <g transform="translate(848.55 414.70925) scale(0.1 -0.1)">
       <defs>
        <path id="DejaVuSans-37" d="M 525 4666 
L 3525 4666 
L 3525 4397 
L 1831 0 
L 1172 0 
L 2766 4134 
L 525 4134 
L 525 4666 
z
" transform="scale(0.015625)"/>
       </defs>
       <use xlink:href="#DejaVuSans-32"/>
       <use xlink:href="#DejaVuSans-37" x="63.623047"/>
       <use xlink:href="#DejaVuSans-30" x="127.246094"/>
      </g>
     </g>
    </g>
    <g id="ytick_12">
     <g id="line2d_35">
      <g>
       <use xlink:href="#m62c196599e" x="841.55" y="358.976312" style="stroke: #000000; stroke-width: 0.8"/>
      </g>
     </g>
     <g id="text_22">
      <!-- 541 -->
      <g transform="translate(848.55 362.77553) scale(0.1 -0.1)">
       <use xlink:href="#DejaVuSans-35"/>
       <use xlink:href="#DejaVuSans-34" x="63.623047"/>
       <use xlink:href="#DejaVuSans-31" x="127.246094"/>
      </g>
     </g>
    </g>
    <g id="ytick_13">
     <g id="line2d_36">
      <g>
       <use xlink:href="#m62c196599e" x="841.55" y="307.042593" style="stroke: #000000; stroke-width: 0.8"/>
      </g>
     </g>
     <g id="text_23">
      <!-- 811 -->
      <g transform="translate(848.55 310.841811) scale(0.1 -0.1)">
       <use xlink:href="#DejaVuSans-38"/>
       <use xlink:href="#DejaVuSans-31" x="63.623047"/>
       <use xlink:href="#DejaVuSans-31" x="127.246094"/>
      </g>
     </g>
    </g>
    <g id="ytick_14">
     <g id="line2d_37">
      <g>
       <use xlink:href="#m62c196599e" x="841.55" y="255.108873" style="stroke: #000000; stroke-width: 0.8"/>
      </g>
     </g>
     <g id="text_24">
      <!-- 1081 -->
      <g transform="translate(848.55 258.908092) scale(0.1 -0.1)">
       <use xlink:href="#DejaVuSans-31"/>
       <use xlink:href="#DejaVuSans-30" x="63.623047"/>
       <use xlink:href="#DejaVuSans-38" x="127.246094"/>
       <use xlink:href="#DejaVuSans-31" x="190.869141"/>
      </g>
     </g>
    </g>
    <g id="ytick_15">
     <g id="line2d_38">
      <g>
       <use xlink:href="#m62c196599e" x="841.55" y="203.175154" style="stroke: #000000; stroke-width: 0.8"/>
      </g>
     </g>
     <g id="text_25">
      <!-- 1351 -->
      <g transform="translate(848.55 206.974373) scale(0.1 -0.1)">
       <use xlink:href="#DejaVuSans-31"/>
       <use xlink:href="#DejaVuSans-33" x="63.623047"/>
       <use xlink:href="#DejaVuSans-35" x="127.246094"/>
       <use xlink:href="#DejaVuSans-31" x="190.869141"/>
      </g>
     </g>
    </g>
    <g id="ytick_16">
     <g id="line2d_39">
      <g>
       <use xlink:href="#m62c196599e" x="841.55" y="151.241435" style="stroke: #000000; stroke-width: 0.8"/>
      </g>
     </g>
     <g id="text_26">
      <!-- 1622 -->
      <g transform="translate(848.55 155.040654) scale(0.1 -0.1)">
       <defs>
        <path id="DejaVuSans-36" d="M 2113 2584 
Q 1688 2584 1439 2293 
Q 1191 2003 1191 1497 
Q 1191 994 1439 701 
Q 1688 409 2113 409 
Q 2538 409 2786 701 
Q 3034 994 3034 1497 
Q 3034 2003 2786 2293 
Q 2538 2584 2113 2584 
z
M 3366 4563 
L 3366 3988 
Q 3128 4100 2886 4159 
Q 2644 4219 2406 4219 
Q 1781 4219 1451 3797 
Q 1122 3375 1075 2522 
Q 1259 2794 1537 2939 
Q 1816 3084 2150 3084 
Q 2853 3084 3261 2657 
Q 3669 2231 3669 1497 
Q 3669 778 3244 343 
Q 2819 -91 2113 -91 
Q 1303 -91 875 529 
Q 447 1150 447 2328 
Q 447 3434 972 4092 
Q 1497 4750 2381 4750 
Q 2619 4750 2861 4703 
Q 3103 4656 3366 4563 
z
" transform="scale(0.015625)"/>
       </defs>
       <use xlink:href="#DejaVuSans-31"/>
       <use xlink:href="#DejaVuSans-36" x="63.623047"/>
       <use xlink:href="#DejaVuSans-32" x="127.246094"/>
       <use xlink:href="#DejaVuSans-32" x="190.869141"/>
      </g>
     </g>
    </g>
    <g id="ytick_17">
     <g id="line2d_40">
      <g>
       <use xlink:href="#m62c196599e" x="841.55" y="99.307716" style="stroke: #000000; stroke-width: 0.8"/>
      </g>
     </g>
     <g id="text_27">
      <!-- 1892 -->
      <g transform="translate(848.55 103.106935) scale(0.1 -0.1)">
       <use xlink:href="#DejaVuSans-31"/>
       <use xlink:href="#DejaVuSans-38" x="63.623047"/>
       <use xlink:href="#DejaVuSans-39" x="127.246094"/>
       <use xlink:href="#DejaVuSans-32" x="190.869141"/>
      </g>
     </g>
    </g>
    <g id="ytick_18">
     <g id="line2d_41">
      <g>
       <use xlink:href="#m62c196599e" x="841.55" y="47.373997" style="stroke: #000000; stroke-width: 0.8"/>
      </g>
     </g>
     <g id="text_28">
      <!-- 2162 -->
      <g transform="translate(848.55 51.173215) scale(0.1 -0.1)">
       <use xlink:href="#DejaVuSans-32"/>
       <use xlink:href="#DejaVuSans-31" x="63.623047"/>
       <use xlink:href="#DejaVuSans-36" x="127.246094"/>
       <use xlink:href="#DejaVuSans-32" x="190.869141"/>
      </g>
     </g>
    </g>
    <g id="text_29">
     <!-- Jahresniederschlag $[l/m^2]$ -->
     <g transform="translate(887.1 300.421875) rotate(-90) scale(0.1 -0.1)">
      <defs>
       <path id="DejaVuSans-2f" d="M 1625 4666 
L 2156 4666 
L 531 -594 
L 0 -594 
L 1625 4666 
z
" transform="scale(0.015625)"/>
      </defs>
      <use xlink:href="#DejaVuSans-4a" transform="translate(0 0.765625)"/>
      <use xlink:href="#DejaVuSans-61" transform="translate(29.492188 0.765625)"/>
      <use xlink:href="#DejaVuSans-68" transform="translate(90.771484 0.765625)"/>
      <use xlink:href="#DejaVuSans-72" transform="translate(154.150391 0.765625)"/>
      <use xlink:href="#DejaVuSans-65" transform="translate(195.263672 0.765625)"/>
      <use xlink:href="#DejaVuSans-73" transform="translate(256.787109 0.765625)"/>
      <use xlink:href="#DejaVuSans-6e" transform="translate(308.886719 0.765625)"/>
      <use xlink:href="#DejaVuSans-69" transform="translate(372.265625 0.765625)"/>
      <use xlink:href="#DejaVuSans-65" transform="translate(400.048828 0.765625)"/>
      <use xlink:href="#DejaVuSans-64" transform="translate(461.572266 0.765625)"/>
      <use xlink:href="#DejaVuSans-65" transform="translate(525.048828 0.765625)"/>
      <use xlink:href="#DejaVuSans-72" transform="translate(586.572266 0.765625)"/>
      <use xlink:href="#DejaVuSans-73" transform="translate(627.685547 0.765625)"/>
      <use xlink:href="#DejaVuSans-63" transform="translate(679.785156 0.765625)"/>
      <use xlink:href="#DejaVuSans-68" transform="translate(734.765625 0.765625)"/>
      <use xlink:href="#DejaVuSans-6c" transform="translate(798.144531 0.765625)"/>
      <use xlink:href="#DejaVuSans-61" transform="translate(825.927734 0.765625)"/>
      <use xlink:href="#DejaVuSans-67" transform="translate(887.207031 0.765625)"/>
      <use xlink:href="#DejaVuSans-20" transform="translate(950.683594 0.765625)"/>
      <use xlink:href="#DejaVuSans-5b" transform="translate(982.470703 0.765625)"/>
      <use xlink:href="#DejaVuSans-Oblique-6c" transform="translate(1021.484375 0.765625)"/>
      <use xlink:href="#DejaVuSans-2f" transform="translate(1049.267578 0.765625)"/>
      <use xlink:href="#DejaVuSans-Oblique-6d" transform="translate(1082.958984 0.765625)"/>
      <use xlink:href="#DejaVuSans-32" transform="translate(1185.02099 39.046875) scale(0.7)"/>
      <use xlink:href="#DejaVuSans-5d" transform="translate(1232.291497 0.765625)"/>
     </g>
    </g>
   </g>
   <g id="patch_149">
    <path d="M 45.725 462.84375 
L 45.725 10.8 
" style="fill: none; stroke: #000000; stroke-width: 0.8; stroke-linejoin: miter; stroke-linecap: square"/>
   </g>
   <g id="patch_150">
    <path d="M 841.55 462.84375 
L 841.55 10.8 
" style="fill: none; stroke: #000000; stroke-width: 0.8; stroke-linejoin: miter; stroke-linecap: square"/>
   </g>
   <g id="patch_151">
    <path d="M 45.725 462.84375 
L 841.55 462.84375 
" style="fill: none; stroke: #000000; stroke-width: 0.8; stroke-linejoin: miter; stroke-linecap: square"/>
   </g>
   <g id="patch_152">
    <path d="M 45.725 10.8 
L 841.55 10.8 
" style="fill: none; stroke: #000000; stroke-width: 0.8; stroke-linejoin: miter; stroke-linecap: square"/>
   </g>
  </g>
 </g>
 <defs>
  <clipPath id="p7841dd0088">
   <rect x="45.725" y="10.8" width="795.825" height="452.04375"/>
  </clipPath>
 </defs>
</svg>
